<?xml version="1.0" encoding="utf-8"?>
<!-- Generator: Adobe Illustrator 16.0.0, SVG Export Plug-In . SVG Version: 6.00 Build 0)  -->
<!DOCTYPE svg PUBLIC "-//W3C//DTD SVG 1.1//EN" "http://www.w3.org/Graphics/SVG/1.1/DTD/svg11.dtd">
<svg version="1.1" id="Layer_1" xmlns="http://www.w3.org/2000/svg" xmlns:xlink="http://www.w3.org/1999/xlink" x="0px" y="0px"
	 width="180px" height="20px" viewBox="-10.5 11.5 180 20" enable-background="new -10.5 11.5 180 20" xml:space="preserve">
<path fill="#E3DFC5" d="M149.5,11.5h-20h-20h-20h-20h-20h-20h-20h-20v20h20h20h20h20h20h20h20h20h20v-20H149.5z M3.938,16.396
	c1.215,0,2.562,0.885,2.562,2.104c-1.211,0-2.915,0-5,0C1.499,17.279,2.723,16.396,3.938,16.396z M-4.958,16.438
	c1.215,0,2.458,0.875,2.458,2.084c-1.307,0-3.566,0-5,0C-7.5,17.3-6.173,16.438-4.958,16.438z M-0.5,29.604
	c-4.584,0-8-4.604-8-9.207c7.402,0,8.383,0,16,0C7.5,25,4.084,29.604-0.5,29.604z M24.5,16.5c1.191,0.232,2.232,1.807,2,3
	c-1.188-0.232-2.953-0.602-5-1C21.732,17.307,23.307,16.27,24.5,16.5z M14.5,16.5c1.191-0.23,2.77,0.809,3,2
	c-1.282,0.25-3.633,0.734-5,1C12.268,18.307,13.307,16.732,14.5,16.5z M11.5,29.5c0-4.586,3.416-9.156,8-9.156s8,4.57,8,9.156
	C20.1,29.5,19.118,29.5,11.5,29.5z M46.5,16.5c0.232,1.191-0.809,2.77-2,3c-1.193,0.232-2.768-0.807-3-2
	C42.688,17.27,44.452,16.898,46.5,16.5z M32.5,16.5c1.282,0.25,3.633,0.734,5,1c-0.232,1.193-1.809,2.232-3,2
	S32.268,17.693,32.5,16.5z M45.5,28.5c-0.561-3.365-2.477-5-6-5c-3.523,0-5.439,1.635-6,5h-2c0.572-4.02,3.814-7.172,8-7.172
	c4.186,0,7.428,3.152,8,7.172H45.5z M63.5,16.5c1.216,0,2,0.79,2,2s-0.79,2-2,2c-1.216,0-2-0.79-2-2S62.29,16.5,63.5,16.5z
	 M55.5,16.5c1.216,0,2,0.79,2,2s-0.79,2-2,2c-1.217,0-2-0.79-2-2S54.284,16.5,55.5,16.5z M67.5,25.5h-16v-2h16V25.5z M86.5,16.5
	c0.23,1.191-0.809,2.77-2,3c-1.193,0.232-2.768-0.807-3-2C82.688,17.27,84.452,16.898,86.5,16.5z M72.5,16.5
	c1.283,0.249,3.634,0.734,5,1c-0.23,1.193-1.807,2.232-3,2C73.309,19.27,72.268,17.693,72.5,16.5z M87.5,23.5l-16,3v-2l16-3V23.5z
	 M104.5,16.5c1.192,0.232,2.231,1.807,2,3c-1.189-0.23-2.953-0.602-5-1C101.731,17.307,103.307,16.269,104.5,16.5z M94.5,16.5
	c1.193-0.231,2.769,0.807,3,2c-1.283,0.25-3.633,0.734-5,1C92.268,18.307,93.308,16.732,94.5,16.5z M106.92,23.444
	c-0.002,2.041-1.652,3.693-3.693,3.693c-1.845,0-3.37-1.356-3.644-3.128c-2.846,0.005-5.692-0.236-8.506-0.729
	c0.068-0.394,0.137-0.788,0.205-1.181c5.438,0.948,10.998,0.948,16.436,0c0.068,0.393,0.137,0.787,0.205,1.181
	C107.59,23.34,107.254,23.395,106.92,23.444z M115.506,19.5c-1.105,0-2-0.898-2-2H113.5c0-1.102,0.896-2,2-2s2,0.898,2,2
	S116.604,19.5,115.506,19.5z M119.501,28c-1.105,0-2.001-0.897-2.001-1.999c0-1.103,0.896-2.001,1.996-2.001
	c1.106,0,2.004,0.898,2.004,2.001C121.5,27.103,120.603,28,119.501,28z M123.503,19.5c-1.106,0-2.003-0.898-2.003-2s0.896-2,1.997-2
	c1.106,0,2.003,0.898,2.003,2S124.604,19.5,123.503,19.5z M143.938,17.396c1.215,0,2.562,0.885,2.562,2.104c-1.211,0-2.915,0-5,0
	C141.499,18.279,142.723,17.396,143.938,17.396z M132.5,18.5h5v1h-5V18.5z M139.5,28.672c-4.186,0-7.428-3.152-8-7.172h2
	c0.561,3.365,2.477,5,6,5s5.439-1.635,6-5h2C146.928,25.52,143.686,28.672,139.5,28.672z M159.5,28.672
	c-4.186,0-7.428-3.152-8-7.172h2c0.561,3.365,2.477,5,6,5s5.439-1.635,6-5h2C166.928,25.52,163.686,28.672,159.5,28.672z
	 M164.099,21.55c-1.989,0-3.612-1.565-3.708-3.522c-0.592-0.068-1.191-0.068-1.784,0c-0.096,1.957-1.716,3.473-3.697,3.473
	c-2.049,0-3.71-1.613-3.71-3.652c0-2.038,1.661-2.197,3.7-2.197c1.728,0,3.181,0.113,3.592,1.37c0.668-0.076,1.347-0.076,2.015,0
	c0.412-1.257,1.864-1.37,3.583-1.37c2.049,0,3.712,0.159,3.712,2.197C167.801,19.887,166.138,21.55,164.099,21.55z"/>
</svg>
