<?xml version="1.0" encoding="utf-8"?>
<!-- Generator: Adobe Illustrator 16.0.0, SVG Export Plug-In . SVG Version: 6.00 Build 0)  -->
<!DOCTYPE svg PUBLIC "-//W3C//DTD SVG 1.1//EN" "http://www.w3.org/Graphics/SVG/1.1/DTD/svg11.dtd">
<svg version="1.1" id="Isolation_Mode" xmlns="http://www.w3.org/2000/svg" xmlns:xlink="http://www.w3.org/1999/xlink" x="0px"
	 y="0px" width="80px" height="80px" viewBox="4.046 31.016 80 80" enable-background="new 4.046 31.016 80 80"
	 xml:space="preserve">
<g>
	<path fill="#EB4724" d="M30.606,94.773c-0.429,0-0.843-0.059-1.236-0.169v3.429h2.847c0.796-3.263,3.15-5.973,6.289-7.399
		c-3.089-1.403-5.419-4.051-6.25-7.243h-2.885v3.449c0.393-0.11,0.807-0.17,1.236-0.17c2.383,0,4.322,1.817,4.322,4.051
		C34.928,92.956,32.989,94.773,30.606,94.773z"/>
	<path fill="#EB4724" d="M56.411,66.713c0.478,0,0.936,0.074,1.365,0.208v-3.097h-2.886c-0.823,3.155-3.108,5.774-6.144,7.191
		c3.035,1.415,5.32,4.036,6.144,7.191h2.886V74.61c-0.43,0.134-0.886,0.206-1.365,0.206c-2.382,0-4.319-1.816-4.319-4.051
		S54.029,66.713,56.411,66.713z"/>
	<path fill="#EB4724" d="M30.606,74.816c-0.429,0-0.843-0.059-1.236-0.169v3.56h2.885c0.822-3.155,3.108-5.774,6.143-7.191
		c-3.035-1.417-5.321-4.036-6.143-7.191h-2.885v3.059c0.393-0.11,0.807-0.17,1.236-0.17c2.383,0,4.322,1.818,4.322,4.053
		S32.989,74.816,30.606,74.816z"/>
	<path fill="#EB4724" d="M43.574,69.803c5.042,0,9.145-3.844,9.145-8.57c0-4.729-4.104-8.574-9.145-8.574
		c-5.042,0-9.145,3.848-9.145,8.574C34.429,65.961,38.531,69.803,43.574,69.803z"/>
	<path fill="#EB4724" d="M43.574,32.989c-5.042,0-9.145,3.846-9.145,8.573s4.102,8.573,9.145,8.573c5.043,0,9.145-3.846,9.145-8.573
		S48.615,32.989,43.574,32.989z"/>
	<path fill="#EB4724" d="M43.574,109.043c5.042,0,9.145-3.845,9.145-8.572s-4.102-8.572-9.145-8.572
		c-5.043,0-9.145,3.845-9.145,8.572C34.429,105.197,38.531,109.043,43.574,109.043z"/>
	<path fill="#EB4724" d="M52.718,80.799c0-4.727-4.103-8.57-9.145-8.57c-5.043,0-9.145,3.844-9.145,8.57
		c0,4.729,4.102,8.576,9.145,8.576C48.615,89.375,52.718,85.527,52.718,80.799z"/>
	<path fill="#EB4724" d="M32.717,110.926c0-1.091-0.946-1.979-2.111-1.979c-1.164,0-2.11,0.888-2.11,1.979
		c0,0.03,0.009,0.059,0.011,0.09h4.201C32.708,110.984,32.717,110.956,32.717,110.926z"/>
	<path fill="#EB4724" d="M54.303,31.62c0,1.09,0.948,1.978,2.11,1.978c1.164,0,2.111-0.888,2.111-1.978
		c0-0.212-0.045-0.413-0.111-0.603h-3.997C54.35,31.207,54.303,31.407,54.303,31.62z"/>
	<path fill="#EB4724" d="M54.891,38.969h2.886v-3.505c-0.43,0.134-0.886,0.207-1.365,0.207c-2.382,0-4.319-1.818-4.319-4.051
		c0-0.205,0.021-0.406,0.053-0.603H47.86v0.389C51.331,32.7,53.99,35.513,54.891,38.969z"/>
	<path fill="#EB4724" d="M30.606,33.597c1.164,0,2.11-0.888,2.11-1.979c0-0.212-0.045-0.412-0.111-0.603h-3.998
		c-0.066,0.191-0.111,0.391-0.111,0.603C28.497,32.71,29.442,33.597,30.606,33.597z"/>
	<path fill="#EB4724" d="M32.294,103.217h-2.924v3.826c0.392-0.11,0.807-0.17,1.235-0.17c2.383,0,4.322,1.817,4.322,4.053
		c0,0.03-0.004,0.061-0.005,0.09h4.749v-0.253C36.063,109.557,33.269,106.729,32.294,103.217z"/>
	<path fill="#EB4724" d="M56.411,47.432c0.478,0,0.936,0.074,1.365,0.208v-3.485h-2.886c-0.833,3.191-3.161,5.838-6.25,7.243
		c3.087,1.404,5.417,4.05,6.25,7.241h2.886v-3.311c-0.43,0.135-0.886,0.207-1.365,0.207c-2.382,0-4.319-1.815-4.319-4.051
		S54.029,47.432,56.411,47.432z"/>
	<path fill="#EB4724" d="M30.606,35.67c-0.429,0-0.843-0.059-1.236-0.168v3.467h2.882c0.935-3.583,3.759-6.476,7.42-7.7v-0.252
		h-4.798c0.032,0.196,0.055,0.398,0.055,0.603C34.929,33.853,32.989,35.67,30.606,35.67z"/>
	<path fill="#EB4724" d="M56.411,49.505c-1.162,0-2.109,0.889-2.109,1.979c0,1.092,0.947,1.979,2.109,1.979
		c1.165,0,2.112-0.887,2.112-1.979C58.523,50.394,57.576,49.505,56.411,49.505z"/>
	<path fill="#EB4724" d="M56.411,68.786c-1.162,0-2.109,0.889-2.109,1.979s0.947,1.978,2.109,1.978c1.165,0,2.112-0.887,2.112-1.978
		S57.576,68.786,56.411,68.786z"/>
	<path fill="#EB4724" d="M56.411,108.947c-1.162,0-2.109,0.888-2.109,1.979c0,0.03,0.009,0.059,0.011,0.09h4.201
		c0.002-0.031,0.01-0.06,0.01-0.09C58.523,109.835,57.576,108.947,56.411,108.947z"/>
	<path fill="#EB4724" d="M29.371,44.154v3.447c0.393-0.111,0.807-0.17,1.236-0.17c2.383,0,4.322,1.817,4.322,4.052
		c0,2.235-1.939,4.052-4.322,4.052c-0.429,0-0.843-0.059-1.236-0.169v3.272h2.885c0.831-3.191,3.162-5.838,6.25-7.242
		c-3.089-1.405-5.42-4.051-6.252-7.243L29.371,44.154L29.371,44.154z"/>
	<polygon fill="#EB4724" points="25.979,31.017 4.046,31.017 4.046,54.016 9.046,54.016 9.046,88.016 4.046,88.016 4.046,111.016 
		25.979,111.016 	"/>
	<path fill="#EB4724" d="M84.046,56.016v-5c0-10.874-9.734-19.999-21.333-19.999h-1.545v79.999h1.545
		c11.599,0,21.333-9.126,21.333-20v-5c0-8.126-6.934-14.625-15.467-15C77.112,70.641,84.046,64.14,84.046,56.016z"/>
	<path fill="#EB4724" d="M58.523,90.721c0-1.09-0.947-1.978-2.112-1.978c-1.162,0-2.109,0.888-2.109,1.978
		c0,1.093,0.947,1.979,2.109,1.979C57.576,92.699,58.523,91.813,58.523,90.721z"/>
	<path fill="#EB4724" d="M30.606,72.743c1.164,0,2.11-0.887,2.11-1.978s-0.946-1.979-2.11-1.979s-2.111,0.889-2.111,1.979
		C28.497,71.856,29.442,72.743,30.606,72.743z"/>
	<path fill="#EB4724" d="M28.497,51.483c0,1.092,0.947,1.979,2.111,1.979c1.164,0,2.11-0.888,2.11-1.979
		c0-1.091-0.947-1.979-2.11-1.979C29.443,49.504,28.497,50.394,28.497,51.483z"/>
	<ellipse fill="#EB4724" cx="30.606" cy="90.721" rx="2.11" ry="1.978"/>
	<path fill="#EB4724" d="M56.411,106.873c0.478,0,0.936,0.074,1.365,0.208v-3.864h-2.925c-0.938,3.387-3.57,6.135-6.992,7.409v0.39
		h4.236c0-0.029-0.004-0.06-0.004-0.09C52.092,108.69,54.029,106.873,56.411,106.873z"/>
	<path fill="#EB4724" d="M57.776,94.566c-0.43,0.133-0.886,0.207-1.365,0.207c-2.382,0-4.319-1.817-4.319-4.053
		c0-2.233,1.938-4.051,4.319-4.051c0.478,0,0.936,0.074,1.365,0.207v-3.486h-2.886c-0.833,3.192-3.161,5.84-6.25,7.243
		c3.138,1.427,5.491,4.137,6.288,7.399h2.848V94.566z"/>
</g>
</svg>
