<?xml version="1.0" encoding="utf-8"?>
<!-- Generator: Adobe Illustrator 16.0.0, SVG Export Plug-In . SVG Version: 6.00 Build 0)  -->
<!DOCTYPE svg PUBLIC "-//W3C//DTD SVG 1.1//EN" "http://www.w3.org/Graphics/SVG/1.1/DTD/svg11.dtd">
<svg version="1.1" id="Capa_1" xmlns="http://www.w3.org/2000/svg" xmlns:xlink="http://www.w3.org/1999/xlink" x="0px" y="0px"
	 width="17px" height="51px" viewBox="0 0 17 51" enable-background="new 0 0 17 51" xml:space="preserve">
<g>
	<path fill="#E3DFC5" d="M5,51c0,0,4-1.416,4-6c0-4.416-4-3-4-3v4l-5-6l5-6v4c0,0,7-0.417,7,7C12,50.916,5,51,5,51z"/>
</g>
<g>
	<path fill="#E3DFC5" d="M16.903,19.691c0.128,0.127,0.128,0.334,0,0.462l-1.763,1.764c-0.105-0.104-2.955-2.954-3.059-3.058
		l1.764-1.764c0.128-0.128,0.335-0.128,0.463,0L16.903,19.691z"/>
	<polygon fill="#E3DFC5" points="0.391,32.537 1.462,33.608 0,33.999 	"/>
	
		<rect x="13.259" y="18.462" transform="matrix(0.7082 -0.7061 0.7061 0.7082 -10.6582 15.463)" fill="#E3DFC5" width="0.234" height="4.324"/>
	
		<rect x="12.942" y="18.779" transform="matrix(0.7061 -0.7082 0.7082 0.7061 -10.9917 15.4024)" fill="#E3DFC5" width="0.232" height="4.326"/>
	<polygon fill="#E3DFC5" points="11.293,19.648 14.352,22.707 4.336,32.722 4.602,31.761 3.515,32.059 3.814,30.973 2.727,31.271 
		3.028,30.186 1.94,30.485 2.239,29.397 1.28,29.661 	"/>
	<polygon fill="#E3DFC5" points="2.084,29.553 1.12,29.818 0.424,32.416 1.582,33.575 4.181,32.878 4.446,31.916 3.36,32.215 
		3.659,31.127 2.573,31.426 2.872,30.341 1.787,30.641 2.084,29.553 	"/>
	<polyline fill="#FFFFFF" points="1.912,29.725 1.669,30.607 1.614,30.812 1.818,30.756 2.699,30.514 2.456,31.394 2.399,31.6 
		2.605,31.543 3.486,31.301 3.244,32.183 3.188,32.387 3.392,32.33 4.273,32.088 4.083,32.779 1.618,33.44 0.559,32.381 
		1.219,29.915 1.912,29.725 	"/>
</g>
<g>
	<path fill="#E3DFC5" d="M8.5,3C11.482,3,14,5.518,14,8.5S11.482,14,8.5,14C5.519,14,3,11.482,3,8.5S5.519,3,8.5,3 M8.5,0
		C3.806,0,0,3.805,0,8.5S3.806,17,8.5,17c4.694,0,8.5-3.805,8.5-8.5S13.194,0,8.5,0"/>
	<line fill="none" stroke="#E3DFC5" stroke-width="2" x1="13" y1="4" x2="4" y2="13"/>
</g>
</svg>
