<?xml version="1.0" encoding="iso-8859-1"?>
<!DOCTYPE svg PUBLIC "-//W3C//DTD SVG 1.1//EN" "http://www.w3.org/Graphics/SVG/1.1/DTD/svg11.dtd">
<svg version="1.1" id="Layer_1" xmlns="http://www.w3.org/2000/svg" xmlns:xlink="http://www.w3.org/1999/xlink" x="0px" y="0px"
	 width="359px" height="359px" viewBox="0 0 359 359" style="enable-background:new 0 0 359 359;" xml:space="preserve"
	>
<circle style="fill:#211C1A;stroke:#F4F2E9;stroke-width:15;" cx="179.694" cy="179.628" r="171.5"/>
<g>
	<path style="fill:#E3DFC5;" d="M49.877,282.308l27.967-22.611l2.422,2.995l-27.967,22.611L49.877,282.308z"/>
	<path style="fill:#E3DFC5;" d="M57.183,260.194l9.993-6.621l0.711,1.069l-9.995,6.622L57.183,260.194z"/>
	<path style="fill:#E3DFC5;" d="M54.246,255.535l10.234-6.244l0.67,1.097l-10.235,6.242L54.246,255.535z"/>
	<path style="fill:#E3DFC5;" d="M51.491,250.772l10.46-5.856l0.629,1.12l-10.461,5.856L51.491,250.772z"/>
	<path style="fill:#E3DFC5;" d="M48.915,245.915l10.672-5.464l0.585,1.144L49.5,247.056L48.915,245.915z"/>
	<path style="fill:#E3DFC5;" d="M46.523,240.964l10.868-5.062l0.542,1.165l-10.867,5.061L46.523,240.964z"/>
	<path style="fill:#E3DFC5;" d="M44.317,235.929l11.048-4.652l0.499,1.182l-11.049,4.652L44.317,235.929z"/>
	<path style="fill:#E3DFC5;" d="M42.311,230.84l11.213-4.239l0.455,1.199l-11.214,4.242L42.311,230.84z"/>
	<path style="fill:#E3DFC5;" d="M40.484,225.651l11.364-3.818l0.408,1.217l-11.363,3.818L40.484,225.651z"/>
	<path style="fill:#E3DFC5;" d="M38.851,220.394l11.499-3.39l0.362,1.23l-11.499,3.392L38.851,220.394z"/>
	<path style="fill:#E3DFC5;" d="M18.16,215.667l35.002-8.266l0.885,3.75l-35.001,8.266L18.16,215.667z"/>
	<path style="fill:#E3DFC5;" d="M34.324,198.905l11.875-1.639l0.177,1.271l-11.875,1.639L34.324,198.905z"/>
	<path style="fill:#E3DFC5;" d="M33.699,193.448l11.929-1.19l0.128,1.278l-11.929,1.19L33.699,193.448z"/>
	<path style="fill:#E3DFC5;" d="M33.28,187.955l11.965-0.739l0.079,1.282l-11.966,0.739L33.28,187.955z"/>
	<path style="fill:#E3DFC5;" d="M33.068,182.464l11.984-0.288l0.03,1.284L33.1,183.748L33.068,182.464z"/>
	<path style="fill:#E3DFC5;" d="M33.064,176.978l11.987,0.163l-0.019,1.284l-11.986-0.164L33.064,176.978z"/>
	<path style="fill:#E3DFC5;" d="M33.268,171.503l11.972,0.614l-0.066,1.282L33.2,172.784L33.268,171.503z"/>
	<path style="fill:#E3DFC5;" d="M33.677,166.014l11.94,1.067l-0.114,1.278l-11.94-1.067L33.677,166.014z"/>
	<path style="fill:#E3DFC5;" d="M34.295,160.548l11.892,1.518l-0.162,1.274l-11.892-1.519L34.295,160.548z"/>
	<path style="fill:#E3DFC5;" d="M35.117,155.11l11.827,1.964l-0.212,1.268l-11.826-1.965L35.117,155.11z"/>
	<path style="fill:#E3DFC5;" d="M18.564,141.832l35.098,7.843l-0.84,3.759l-35.099-7.842L18.564,141.832z"/>
	<path style="fill:#E3DFC5;" d="M40.421,133.806l11.401,3.705l-0.398,1.222l-11.399-3.704L40.421,133.806z"/>
	<path style="fill:#E3DFC5;" d="M42.208,128.688l11.292,4.023l-0.432,1.209l-11.292-4.022L42.208,128.688z"/>
	<path style="fill:#E3DFC5;" d="M44.241,123.511l11.099,4.533l-0.486,1.188L43.756,124.7L44.241,123.511z"/>
	<path style="fill:#E3DFC5;" d="M46.443,118.454l10.922,4.941l-0.529,1.17l-10.922-4.943L46.443,118.454z"/>
	<path style="fill:#E3DFC5;" d="M48.827,113.493l10.729,5.347l-0.572,1.148l-10.73-5.347L48.827,113.493z"/>
	<path style="fill:#E3DFC5;" d="M51.391,108.631l10.522,5.745l-0.614,1.127l-10.522-5.744L51.391,108.631z"/>
	<path style="fill:#E3DFC5;" d="M54.131,103.878l10.3,6.134l-0.657,1.104l-10.299-6.134L54.131,103.878z"/>
	<path style="fill:#E3DFC5;" d="M57.048,99.231l10.062,6.518l-0.699,1.078l-10.061-6.519L57.048,99.231z"/>
	<path style="fill:#E3DFC5;" d="M60.15,94.677l9.807,6.894l-0.739,1.05l-9.807-6.893L60.15,94.677z"/>
	<path style="fill:#E3DFC5;" d="M50.973,75.552l28.235,22.276l-2.388,3.023L48.587,78.576L50.973,75.552z"/>
	<path style="fill:#E3DFC5;" d="M74.166,77.782l8.66,8.29L81.938,87l-8.659-8.291L74.166,77.782z"/>
	<path style="fill:#E3DFC5;" d="M78.052,73.907l8.341,8.61l-0.922,0.893l-8.342-8.608L78.052,73.907z"/>
	<path style="fill:#E3DFC5;" d="M82.088,70.176l8.012,8.917l-0.955,0.857l-8.012-8.916L82.088,70.176z"/>
	<path style="fill:#E3DFC5;" d="M86.254,66.604l7.672,9.211l-0.987,0.822l-7.672-9.212L86.254,66.604z"/>
	<path style="fill:#E3DFC5;" d="M90.562,63.181l7.32,9.493l-1.018,0.785l-7.32-9.494L90.562,63.181z"/>
	<path style="fill:#E3DFC5;" d="M94.989,59.929l6.96,9.761l-1.046,0.745l-6.961-9.76L94.989,59.929z"/>
	<path style="fill:#E3DFC5;" d="M99.524,56.847l6.593,10.014l-1.072,0.706l-6.591-10.013L99.524,56.847z"/>
	<path style="fill:#E3DFC5;" d="M104.194,53.925l6.213,10.254l-1.1,0.665l-6.212-10.253L104.194,53.925z"/>
	<path style="fill:#E3DFC5;" d="M108.965,51.185l5.824,10.479l-1.122,0.623l-5.824-10.477L108.965,51.185z"/>
	<path style="fill:#E3DFC5;" d="M109.027,29.972l15.732,32.34l-3.463,1.684l-15.733-32.34L109.027,29.972z"/>
	<path style="fill:#E3DFC5;" d="M128.951,42.055l4.204,11.226l-1.202,0.451l-4.204-11.228L128.951,42.055z"/>
	<path style="fill:#E3DFC5;" d="M134.146,40.245l3.783,11.375l-1.219,0.405l-3.782-11.375L134.146,40.245z"/>
	<path style="fill:#E3DFC5;" d="M139.382,38.638l3.356,11.507l-1.232,0.36l-3.356-11.509L139.382,38.638z"/>
	<path style="fill:#E3DFC5;" d="M144.706,37.214l2.923,11.626l-1.244,0.314l-2.924-11.626L144.706,37.214z"/>
	<path style="fill:#E3DFC5;" d="M150.059,35.999l2.489,11.727l-1.257,0.268l-2.486-11.727L150.059,35.999z"/>
	<path style="fill:#E3DFC5;" d="M155.464,34.985l2.046,11.811l-1.265,0.22l-2.046-11.812L155.464,34.985z"/>
	<path style="fill:#E3DFC5;" d="M160.887,34.173l1.602,11.88l-1.271,0.172l-1.603-11.88L160.887,34.173z"/>
	<path style="fill:#E3DFC5;" d="M166.348,33.564l1.153,11.933l-1.278,0.123l-1.154-11.932L166.348,33.564z"/>
	<path style="fill:#E3DFC5;" d="M171.842,33.162l0.703,11.967l-1.281,0.077l-0.703-11.969L171.842,33.162z"/>
	<path style="fill:#E3DFC5;" d="M181.133,14.079l0.118,35.965l-3.852,0.012l-0.118-35.963L181.133,14.079z"/>
	<path style="fill:#E3DFC5;" d="M193.789,33.626l-1.104,11.938l-1.278-0.118l1.104-11.938L193.789,33.626z"/>
	<path style="fill:#E3DFC5;" d="M199.255,34.261L197.7,46.148l-1.273-0.167l1.554-11.887L199.255,34.261z"/>
	<path style="fill:#E3DFC5;" d="M204.664,35.098l-1.999,11.819l-1.267-0.213l2-11.82L204.664,35.098z"/>
	<path style="fill:#E3DFC5;" d="M210.072,36.142l-2.444,11.736l-1.257-0.262l2.443-11.735L210.072,36.142z"/>
	<path style="fill:#E3DFC5;" d="M215.412,37.384l-2.881,11.637l-1.246-0.31l2.881-11.636L215.412,37.384z"/>
	<path style="fill:#E3DFC5;" d="M220.712,38.825L217.4,50.347l-1.235-0.355l3.312-11.521L220.712,38.825z"/>
	<path style="fill:#E3DFC5;" d="M225.963,40.468l-3.738,11.39l-1.221-0.399l3.74-11.392L225.963,40.468z"/>
	<path style="fill:#E3DFC5;" d="M231.08,42.268l-4.022,11.293l-1.211-0.433l4.024-11.291L231.08,42.268z"/>
	<path style="fill:#E3DFC5;" d="M236.275,44.329l-4.566,11.084l-1.189-0.489l4.569-11.083L236.275,44.329z"/>
	<path style="fill:#E3DFC5;" d="M252.902,31.157l-15.491,32.457l-3.477-1.659l15.491-32.458L252.902,31.157z"/>
	<path style="fill:#E3DFC5;" d="M255.866,54.276l-6.167,10.279l-1.101-0.66l6.167-10.28L255.866,54.276z"/>
	<path style="fill:#E3DFC5;" d="M260.501,57.204l-6.549,10.042l-1.075-0.702l6.549-10.041L260.501,57.204z"/>
	<path style="fill:#E3DFC5;" d="M265.021,60.304l-6.923,9.786l-1.047-0.741l6.921-9.788L265.021,60.304z"/>
	<path style="fill:#E3DFC5;" d="M269.445,63.589l-7.289,9.52l-1.02-0.781l7.289-9.518L269.445,63.589z"/>
	<path style="fill:#E3DFC5;" d="M273.722,67.024l-7.641,9.237l-0.989-0.818l7.642-9.237L273.722,67.024z"/>
	<path style="fill:#E3DFC5;" d="M277.872,70.626l-7.983,8.941l-0.958-0.855l7.984-8.941L277.872,70.626z"/>
	<path style="fill:#E3DFC5;" d="M281.889,74.384l-8.316,8.634l-0.926-0.892l8.317-8.633L281.889,74.384z"/>
	<path style="fill:#E3DFC5;" d="M285.752,78.28l-8.636,8.315l-0.891-0.925l8.634-8.315L285.752,78.28z"/>
	<path style="fill:#E3DFC5;" d="M289.471,82.328l-8.941,7.984l-0.855-0.958l8.941-7.984L289.471,82.328z"/>
	<path style="fill:#E3DFC5;" d="M310.188,77.737l-28.104,22.441l-2.404-3.01l28.103-22.441L310.188,77.737z"/>
	<path style="fill:#E3DFC5;" d="M302.76,99.825l-10.034,6.561l-0.703-1.074l10.035-6.56L302.76,99.825z"/>
	<path style="fill:#E3DFC5;" d="M305.651,104.479l-10.271,6.182l-0.662-1.101l10.271-6.182L305.651,104.479z"/>
	<path style="fill:#E3DFC5;" d="M308.379,109.257l-10.494,5.795l-0.621-1.125l10.495-5.793L308.379,109.257z"/>
	<path style="fill:#E3DFC5;" d="M310.925,114.132l-10.704,5.398l-0.578-1.146l10.704-5.398L310.925,114.132z"/>
	<path style="fill:#E3DFC5;" d="M313.287,119.097l-10.897,4.996l-0.535-1.167l10.898-4.997L313.287,119.097z"/>
	<path style="fill:#E3DFC5;" d="M315.463,124.143l-11.074,4.588l-0.492-1.187l11.075-4.588L315.463,124.143z"/>
	<path style="fill:#E3DFC5;" d="M317.449,129.271l-11.239,4.171l-0.446-1.204l11.239-4.17L317.449,129.271z"/>
	<path style="fill:#E3DFC5;" d="M319.245,134.472l-11.388,3.749l-0.401-1.22l11.386-3.749L319.245,134.472z"/>
	<path style="fill:#E3DFC5;" d="M320.844,139.737l-11.518,3.322l-0.356-1.235l11.52-3.319L320.844,139.737z"/>
	<path style="fill:#E3DFC5;" d="M341.5,144.564l-35.051,8.055l-0.861-3.753l35.049-8.057L341.5,144.564z"/>
	<path style="fill:#E3DFC5;" d="M325.236,161.232L313.35,162.8l-0.167-1.273l11.885-1.566L325.236,161.232z"/>
	<path style="fill:#E3DFC5;" d="M325.826,166.696l-11.935,1.118l-0.12-1.278l11.936-1.118L325.826,166.696z"/>
	<path style="fill:#E3DFC5;" d="M326.214,172.193l-11.97,0.666l-0.07-1.282l11.969-0.667L326.214,172.193z"/>
	<path style="fill:#E3DFC5;" d="M326.391,177.689l-11.986,0.214l-0.022-1.283l11.985-0.215L326.391,177.689z"/>
	<path style="fill:#E3DFC5;" d="M326.361,183.181l-11.984-0.238l0.025-1.283l11.984,0.236L326.361,183.181z"/>
	<path style="fill:#E3DFC5;" d="M326.126,188.657l-11.969-0.688l0.074-1.281l11.968,0.688L326.126,188.657z"/>
	<path style="fill:#E3DFC5;" d="M325.682,194.146l-11.935-1.141l0.123-1.278l11.933,1.142L325.682,194.146z"/>
	<path style="fill:#E3DFC5;" d="M325.033,199.585l-11.883-1.59l0.17-1.271l11.883,1.589L325.033,199.585z"/>
	<path style="fill:#E3DFC5;" d="M324.176,205.022l-11.812-2.038l0.217-1.265l11.815,2.037L324.176,205.022z"/>
	<path style="fill:#E3DFC5;" d="M340.647,218.409l-35.05-8.057l0.862-3.755l35.05,8.058L340.647,218.409z"/>
	<path style="fill:#E3DFC5;" d="M318.745,226.288l-11.38-3.771l0.404-1.219l11.381,3.771L318.745,226.288z"/>
	<path style="fill:#E3DFC5;" d="M316.934,231.401l-11.294-4.023l0.433-1.21l11.291,4.024L316.934,231.401z"/>
	<path style="fill:#E3DFC5;" d="M314.854,236.591l-11.07-4.602l0.493-1.186l11.069,4.601L314.854,236.591z"/>
	<path style="fill:#E3DFC5;" d="M312.635,241.601l-10.893-5.007l0.537-1.167l10.893,5.007L312.635,241.601z"/>
	<path style="fill:#E3DFC5;" d="M310.21,246.568l-10.696-5.413l0.579-1.146l10.697,5.414L310.21,246.568z"/>
	<path style="fill:#E3DFC5;" d="M307.622,251.406l-10.487-5.808l0.621-1.123l10.488,5.808L307.622,251.406z"/>
	<path style="fill:#E3DFC5;" d="M304.854,256.142l-10.261-6.197l0.663-1.1l10.263,6.197L304.854,256.142z"/>
	<path style="fill:#E3DFC5;" d="M301.898,260.787l-10.021-6.579l0.705-1.074l10.021,6.58L301.898,260.787z"/>
	<path style="fill:#E3DFC5;" d="M298.787,265.298l-9.767-6.953l0.745-1.047l9.766,6.954L298.787,265.298z"/>
	<path style="fill:#E3DFC5;" d="M307.83,284.497l-28.095-22.451l2.403-3.01l28.096,22.45L307.83,284.497z"/>
</g>
<circle style="fill:#312D29;stroke:#524D47;stroke-width:5;" cx="179.693" cy="179.627" r="63.666"/>
<circle style="fill:#E3DFC5;stroke:#231F20;stroke-width:14;" cx="179.694" cy="179.628" r="33.161"/>
<circle style="fill:none;stroke:#F4F2E9;stroke-width:15;" cx="179.694" cy="179.628" r="171.5"/>
</svg>
