<?xml version="1.0" encoding="utf-8"?>
<!-- Generator: Adobe Illustrator 16.0.0, SVG Export Plug-In . SVG Version: 6.00 Build 0)  -->
<!DOCTYPE svg PUBLIC "-//W3C//DTD SVG 1.1//EN" "http://www.w3.org/Graphics/SVG/1.1/DTD/svg11.dtd">
<svg version="1.1" id="Layer_1" xmlns="http://www.w3.org/2000/svg" xmlns:xlink="http://www.w3.org/1999/xlink" x="0px" y="0px"
	 width="21px" height="21px" viewBox="0 0 21 21" enable-background="new 0 0 21 21" xml:space="preserve">
<path fill="#A9A48F" d="M4.984,17.969V9.337c0-0.184-0.151-0.333-0.337-0.333H1.353c-0.186,0-0.337,0.149-0.337,0.333v8.632H4.984z"
	/>
<path fill="#EB4924" d="M9.969,17.969V2.355c0-0.188-0.15-0.34-0.336-0.34H6.366c-0.185,0-0.334,0.152-0.334,0.34v15.613H9.969z"/>
<path fill="#E2DEC5" d="M14.984,17.969V6.347c0-0.183-0.152-0.331-0.339-0.331h-3.307C11.151,6.016,11,6.164,11,6.347v11.622H14.984
	z"/>
<path fill="#9A1E21" d="M19.984,17.969v-6.624c0-0.182-0.152-0.329-0.339-0.329h-3.308c-0.186,0-0.338,0.147-0.338,0.329v6.624
	H19.984z"/>
<path fill="#C33E2E" d="M9,17.969h0.969V2.355c0-0.188-0.15-0.34-0.336-0.34H9"/>
<path fill="#BCB8A3" d="M14.016,17.969h0.969V6.355c0-0.188-0.15-0.34-0.336-0.34h-0.633"/>
<path fill="#8B1B21" d="M19.016,17.992h0.969v-6.637c0-0.188-0.15-0.34-0.336-0.34h-0.633"/>
<path fill="#9C9784" d="M4.016,17.969h0.969V9.344c0-0.188-0.15-0.34-0.336-0.34H4.016"/>
<rect y="17.016" fill="#827D6C" width="21" height="0.977"/>
</svg>
