<?xml version="1.0" encoding="utf-8"?>
<!-- Generator: Adobe Illustrator 16.0.0, SVG Export Plug-In . SVG Version: 6.00 Build 0)  -->
<!DOCTYPE svg PUBLIC "-//W3C//DTD SVG 1.1//EN" "http://www.w3.org/Graphics/SVG/1.1/DTD/svg11.dtd">
<svg version="1.1" id="Layer_1" xmlns="http://www.w3.org/2000/svg" xmlns:xlink="http://www.w3.org/1999/xlink" x="0px" y="0px"
	 width="337px" height="345px" viewBox="0 0 337 345" enable-background="new 0 0 337 345" xml:space="preserve">
<path fill-rule="evenodd" clip-rule="evenodd" fill="#9E9E9E" d="M38.278,209.034c0,0,19.545,6.042,49.906,10.884
	c18.019,2.873,38.521,4.044,53.522,3.845l-11.749,37.33c-4.963,0.363-8.907,4.508-8.907,9.522v64.712
	c0,5.251,4.326,9.548,9.616,9.548h118.595c5.288,0,9.617-4.297,9.617-9.548v-64.712c0-5.251-4.329-9.548-9.617-9.548h-15.387
	v-67.368c7.861-4.18,14.436-8.587,18.366-13.053c17.046-19.365,78.892-100.004,78.892-100.004L38.278,209.034z M138.51,261.067
	l11.837-37.608c2.176-0.134,4.114-0.31,5.8-0.522v38.131H138.51z"/>
<path fill-rule="evenodd" clip-rule="evenodd" fill="#E7E8E9" d="M143.973,45.02C60.635,80.817-21.429,144.503,5.334,188.515
	c23.177,38.115,127.988,29.293,211.865-10.513c79.541-37.748,140.902-105.58,112.871-140.54
	C303.457,4.274,227.313,9.222,143.973,45.02z"/>
<linearGradient id="SVGID_1_" gradientUnits="userSpaceOnUse" x1="373.2002" y1="112.709" x2="-38.0187" y2="112.709">
	<stop  offset="0" style="stop-color:#ABA8A8"/>
	<stop  offset="1" style="stop-color:#FFFFFF"/>
</linearGradient>
<path fill-rule="evenodd" clip-rule="evenodd" fill="url(#SVGID_1_)" d="M143.363,44.617C60.379,79.933-21.335,142.76,5.313,186.179
	c23.075,37.601,127.445,28.897,210.964-10.371c79.205-37.24,140.309-104.157,112.394-138.646
	C302.17,4.421,226.35,9.303,143.363,44.617z"/>
<path fill-rule="evenodd" clip-rule="evenodd" fill="#9E9E9E" d="M99.751,159.238 M225.635,82.364l17.848,1.718l-13.933-16.14
	L136.782,0.726c-0.028-0.02-0.056-0.04-0.083-0.06c-4.846,0.871-9.691,1.742-14.537,2.613c-0.366,0.065-0.912,0.057-1.237,0.254
	c-0.732,0.444-1.465,0.888-2.196,1.331c-2.654,1.608-5.309,3.217-7.962,4.825c-0.772,0.468-1.848,0.894-2.49,1.542
	c-1.082,1.093-2.165,2.187-3.248,3.279c-2.571,2.597-5.142,5.192-7.713,7.789c0.554,2.486,1.096,4.976,1.604,7.472
	c0.251,1.235,0.632,2.535,0.632,3.805c0,1.875,0,3.749,0,5.623c0,9.407,0,18.815,0,28.223c0,12.977,0,25.952,0,38.928
	c0,11.771,0,23.541,0,35.312v17.577L107,183l10-24l3.403-26.948c1.096-8.764,2.231-17.522,3.345-26.284
	c1.094-8.604,2.189-17.206,3.286-25.81c0.325-2.549,0.649-5.099,0.974-7.648c1.024-0.162,2.48-0.139,3.436-0.571
	c0.609-0.276,1.219-0.553,1.828-0.828c1.488-0.675,2.977-1.349,4.465-2.023c4.409,8.454,8.377,17.134,12.48,25.74
	c0.176,0.369,0.352,0.737,0.527,1.106c0.113,0.148,0.042,0.544,0.082,0.804c0.062,0.396,0.223,0.77,0.463,1.09
	c0.499,0.664,1.287,1.063,2.085,1.239c0.407,0.32,0.71,1.36,0.944,1.811c0.899,1.724,1.799,3.448,2.698,5.172l0.073-0.001
	c-0.297,1.07,0.428,1.703,1.43,1.858l-0.01,0.005c0.241,2.385,0.483,4.771,0.725,7.155c0.102,1.01,0.888,2.08,1.32,2.976
	c2.632,5.44,5.264,10.882,7.895,16.322c0.845,1.745,1.688,3.49,2.533,5.235c0.394,0.814,0.89,2.519,1.484,3.069
	c0.001,0,0.002,0,0.002-0.001c0.239,0.219,0.542,0.398,0.889,0.546c-1.764,2.729-1.925,6.536,1.189,8.347
	c3.618,2.103,8.384,1.229,12.1-0.12c3.693-1.341,7.319-3.507,9.662-6.73c1.202-1.654,2.189-3.766,1.716-5.854
	c-0.408-1.801-1.931-3.058-3.602-3.673c1.169-1.259,3.037-3.602,1.878-5.405c-0.678-1.03-1.708-1.956-2.516-2.881
	c-1.812-2.074-3.623-4.148-5.435-6.222c-3.869-4.432-7.739-8.862-11.608-13.293c-0.494-0.565-1.034-1.473-1.667-1.895
	c-1.634-1.09-3.268-2.179-4.901-3.268l-0.008,0.004c0.432-0.654,0.826-1.709,0.165-2.355c-0.395-0.387-0.635-0.372-0.937-0.831
	c-0.791-1.2-1.581-2.4-2.371-3.601c-0.63-0.956-1.26-1.911-1.889-2.867c-0.107-0.163,0.04-0.684,0.021-0.9
	c-0.047-0.543-0.263-1.062-0.625-1.471c-0.236-0.267-0.575-0.384-0.747-0.689c-2.322-4.103-4.645-8.205-6.967-12.309
	c-2.645-4.672-5.288-9.344-7.933-14.016c1.714-1.949,3.443-3.887,5.224-5.776c0.816-0.867,1.638-1.731,2.514-2.539
	c0.803-0.74,1.712-1.362,2.442-2.181L225.635,82.364 M125.831,50.006l-11.226,9.813c0.318,1.991,0.628,3.985,0.878,5.986
	c0.165,1.318,0.081,2.357-0.085,3.664c-0.496,3.896-0.992,7.792-1.488,11.688c0-8.884,0-17.767,0-26.65c0-3.953,0-7.906,0-11.859
	c0.88,0.002,1.76-0.001,2.64-0.009c0.285-0.003,0.79,0.091,1.062-0.016c0.622-0.243,1.244-0.486,1.866-0.729
	c1.572-0.615,3.145-1.229,4.717-1.845l4.051,8.496L125.831,50.006z M130.855,46.967l-3.771-8.048l4.095-1.602l3.984,7.044
	L130.855,46.967z M163.619,95.002l2.892,4.393c-2.813,0.646-5.635,2.113-7.741,4.095l-2.353-4.618
	C159.104,98.414,161.788,97.039,163.619,95.002z M159.647,88.969c-2.446,0.393-4.815,1.528-6.638,3.212
	c-4.025-7.902-8.176-15.753-12.08-23.716c-0.137-0.279-0.265-0.563-0.396-0.845l3.898-1.767L159.647,88.969z M191.727,55.472
	c-7.734-3.467-15.465-6.939-23.198-10.409c-4.235-1.9-8.471-3.798-12.72-5.666c-0.953-0.419-1.905-0.838-2.857-1.256
	c-0.273-0.121-1.366,0.401-1.638,0.482c-2.903,0.863-5.808,1.727-8.711,2.591c-1.672,0.497-3.567,0.806-5.07,1.715l-3.751-6.628
	c0.238-0.094,0.478-0.187,0.716-0.28c0.452-0.178,1.057-1.493,1.346-1.907c1.021-1.467,2.057-2.922,3.11-4.364
	c1.062-1.456,2.138-2.904,3.289-4.292c1.013-1.224,2.326-2.173,3.249-3.475l46.418,33.571L191.727,55.472z"/>
</svg>
