<?xml version="1.0" encoding="utf-8"?>
<!-- Generator: Adobe Illustrator 16.0.0, SVG Export Plug-In . SVG Version: 6.00 Build 0)  -->
<!DOCTYPE svg PUBLIC "-//W3C//DTD SVG 1.1//EN" "http://www.w3.org/Graphics/SVG/1.1/DTD/svg11.dtd">
<svg version="1.1" id="Layer_1" xmlns="http://www.w3.org/2000/svg" xmlns:xlink="http://www.w3.org/1999/xlink" x="0px" y="0px"
	 width="30px" height="30px" viewBox="0 0 30 30" enable-background="new 0 0 30 30" xml:space="preserve">
<g opacity="0.3">
	<path d="M14.191,16.142c0.943,0,1.782-0.205,1.782-1.369c0-1.104-0.869-1.513-1.798-1.513c-0.614,0-1.094,0.109-1.527,0.599
		c0.689,0,1.243,0.252,1.243,1.056c0,0.771-0.688,1.117-1.348,1.117c-0.779,0-1.334-0.583-1.334-1.416
		c0-2.001,2.068-2.615,3.625-2.615c1.528,0,3.896,0.456,3.896,2.52c0,1.307-0.884,1.858-1.993,2.079v0.032
		C18.011,16.976,19,17.496,19,19.086C19,21.448,17.172,22,14.94,22C13.037,22,11,21.623,11,19.401c0-1.023,0.539-1.606,1.499-1.606
		c0.689,0,1.258,0.489,1.258,1.244c0,0.771-0.554,1.118-1.243,1.118c0.254,0.347,1.093,0.583,1.482,0.583
		c1.094,0,2.247-0.347,2.247-1.749c0-1.4-0.929-1.59-2.052-1.59V16.142L14.191,16.142z"/>
</g>
<g opacity="0.4">
	<path d="M26,24H4v2h22V24L26,24z"/>
</g>
<g>
	<path fill="#ECEAD8" d="M24,23.096H6V10h18V23.096z M26,5H4v20h22V5L26,5z"/>
</g>
<g>
	<path fill="#ECEAD8" d="M14.191,15.142c0.943,0,1.783-0.205,1.783-1.369c0-1.104-0.869-1.513-1.797-1.513
		c-0.615,0-1.094,0.109-1.528,0.599c0.689,0,1.243,0.252,1.243,1.056c0,0.771-0.689,1.117-1.348,1.117
		c-0.779,0-1.334-0.583-1.334-1.416c0-2.001,2.068-2.615,3.625-2.615c1.528,0,3.896,0.456,3.896,2.52
		c0,1.307-0.884,1.858-1.993,2.079v0.032C18.011,15.976,19,16.496,19,18.086C19,20.448,17.172,21,14.94,21
		C13.038,21,11,20.623,11,18.401c0-1.023,0.539-1.606,1.499-1.606c0.689,0,1.258,0.489,1.258,1.244c0,0.771-0.554,1.118-1.243,1.118
		c0.254,0.347,1.093,0.583,1.482,0.583c1.093,0,2.247-0.347,2.247-1.749c0-1.4-0.929-1.59-2.052-1.59V15.142L14.191,15.142z"/>
</g>
</svg>
