<?xml version="1.0" encoding="utf-8"?>
<!-- Generator: Adobe Illustrator 16.0.0, SVG Export Plug-In . SVG Version: 6.00 Build 0)  -->
<!DOCTYPE svg PUBLIC "-//W3C//DTD SVG 1.1//EN" "http://www.w3.org/Graphics/SVG/1.1/DTD/svg11.dtd">
<svg version="1.1" id="Layer_1" xmlns="http://www.w3.org/2000/svg" xmlns:xlink="http://www.w3.org/1999/xlink" x="0px" y="0px"
	 width="37px" height="22px" viewBox="-10 11.5 37 22" enable-background="new -10 11.5 37 22" xml:space="preserve">
<path fill="#312D29" d="M6,15.5H-8c-1.104,0-2,0.896-2,2v8c0,1.104,0.896,2,2,2h4v3l3.083-3H6c1.104,0,2-0.896,2-2v-8
	C8,16.396,7.104,15.5,6,15.5z"/>
<path fill="#EC4622" d="M25,15.5H11c-1.104,0-2,0.896-2,2v8c0,1.104,0.896,2,2,2h4v3l3-3h7c1.104,0,2-0.896,2-2v-8
	C27,16.396,26.104,15.5,25,15.5z"/>
</svg>
