<?xml version="1.0" encoding="utf-8"?>
<!-- Generator: Adobe Illustrator 16.0.0, SVG Export Plug-In . SVG Version: 6.00 Build 0)  -->
<!DOCTYPE svg PUBLIC "-//W3C//DTD SVG 1.1//EN" "http://www.w3.org/Graphics/SVG/1.1/DTD/svg11.dtd">
<svg version="1.1" id="Layer_1" xmlns="http://www.w3.org/2000/svg" xmlns:xlink="http://www.w3.org/1999/xlink" x="0px" y="0px"
	 width="33px" height="16px" viewBox="-10 11.5 33 16" enable-background="new -10 11.5 33 16" xml:space="preserve">
<g>
	<path fill="#312D29" d="M5.39,18.27H4.652c-0.338,0-0.698-0.264-0.798-0.586L3.43,16.652c-0.16-0.298-0.094-0.738,0.145-0.979
		l0.524-0.522c0.24-0.239,0.24-0.632,0-0.872L3.225,13.41c-0.238-0.242-0.63-0.242-0.87,0L1.83,13.933
		c-0.239,0.239-0.679,0.304-0.979,0.144l-1.028-0.423c-0.323-0.1-0.589-0.459-0.589-0.798v-0.738c0-0.339-0.276-0.617-0.617-0.617
		h-1.229c-0.338,0-0.616,0.278-0.616,0.617v0.738c0,0.338-0.266,0.698-0.587,0.798l-1.032,0.425
		c-0.298,0.16-0.737,0.096-0.977-0.145L-6.35,13.41c-0.239-0.24-0.63-0.24-0.87,0l-0.87,0.869c-0.241,0.239-0.241,0.631,0,0.87
		l0.522,0.524c0.24,0.24,0.306,0.68,0.144,0.978l-0.423,1.032c-0.102,0.324-0.46,0.588-0.798,0.588l-0.739-0.002
		c-0.338,0-0.616,0.279-0.616,0.617v1.23c0,0.34,0.278,0.613,0.616,0.613h0.739c0.338,0.002,0.697,0.268,0.797,0.59l0.424,1.031
		c0.161,0.297,0.096,0.738-0.145,0.98l-0.523,0.521c-0.239,0.238-0.239,0.629,0,0.871l0.872,0.869c0.239,0.24,0.63,0.24,0.87,0
		l0.524-0.523c0.239-0.236,0.679-0.303,0.975-0.145l1.033,0.426c0.322,0.102,0.587,0.461,0.587,0.799v0.736
		c0,0.336,0.276,0.613,0.616,0.613h1.23c0.339,0,0.617-0.277,0.617-0.613V26.15c0-0.338,0.266-0.697,0.588-0.799l1.032-0.426
		c0.296-0.158,0.736-0.094,0.977,0.145l0.522,0.523c0.239,0.24,0.631,0.24,0.87,0l0.874-0.869c0.238-0.242,0.238-0.633,0-0.871
		L3.57,23.332c-0.239-0.24-0.304-0.684-0.145-0.98l0.424-1.031c0.101-0.322,0.46-0.588,0.798-0.588h0.737
		C5.724,20.732,6,20.457,6,20.117v-1.23C6.005,18.549,5.729,18.27,5.39,18.27z M0.5,19.5C0.5,20.811-0.674,22-2,22
		c-1.325,0-2.5-1.189-2.5-2.5S-3.326,17-2,17C-0.673,17.002,0.5,18.191,0.5,19.5z"/>
</g>
<g>
	<path fill="#EC4622" d="M22.389,18.268h-0.737c-0.336,0-0.695-0.264-0.798-0.586l-0.427-1.031
		c-0.157-0.298-0.095-0.738,0.147-0.979l0.522-0.522c0.238-0.239,0.238-0.632,0-0.872l-0.872-0.869
		c-0.238-0.242-0.631-0.242-0.871,0l-0.524,0.522c-0.236,0.239-0.679,0.305-0.976,0.146l-1.032-0.423
		c-0.321-0.101-0.588-0.459-0.588-0.798v-0.74c0-0.337-0.275-0.615-0.615-0.615h-1.232c-0.34,0-0.615,0.278-0.615,0.615v0.739
		c0,0.338-0.265,0.698-0.585,0.798l-1.03,0.424c-0.303,0.161-0.739,0.096-0.98-0.145L10.65,13.41c-0.238-0.24-0.629-0.24-0.869,0
		l-0.867,0.87c-0.242,0.239-0.242,0.632,0,0.871l0.521,0.522c0.24,0.24,0.307,0.68,0.147,0.979l-0.429,1.031
		c-0.104,0.322-0.46,0.588-0.8,0.588L7.616,18.27C7.276,18.27,7,18.547,7,18.887v1.23c0,0.338,0.276,0.613,0.616,0.613h0.738
		c0.34,0.002,0.696,0.268,0.796,0.59l0.427,1.031c0.161,0.297,0.096,0.738-0.147,0.979l-0.521,0.521
		c-0.238,0.238-0.238,0.631,0,0.871l0.869,0.869c0.24,0.24,0.631,0.24,0.871,0l0.525-0.521c0.236-0.238,0.678-0.303,0.975-0.145
		l1.032,0.426c0.323,0.1,0.59,0.459,0.59,0.797v0.736c0,0.336,0.273,0.615,0.615,0.615h1.23c0.34,0,0.615-0.279,0.615-0.615v-0.736
		c0-0.338,0.267-0.697,0.588-0.797l1.034-0.426c0.297-0.158,0.735-0.094,0.978,0.145l0.522,0.521c0.24,0.24,0.631,0.24,0.871,0
		l0.872-0.869c0.238-0.24,0.238-0.633,0-0.871L20.57,23.33c-0.238-0.236-0.307-0.682-0.146-0.979l0.427-1.031
		c0.1-0.322,0.46-0.588,0.796-0.588h0.739c0.34,0,0.613-0.277,0.613-0.613v-1.232C23.004,18.547,22.727,18.268,22.389,18.268z
		 M17.5,19.5c0,1.311-1.171,2.5-2.5,2.5c-1.325,0-2.5-1.191-2.5-2.5c0-1.311,1.171-2.5,2.5-2.5S17.5,18.189,17.5,19.5z"/>
</g>
</svg>
