<?xml version="1.0" encoding="utf-8"?>
<!-- Generator: Adobe Illustrator 16.0.0, SVG Export Plug-In . SVG Version: 6.00 Build 0)  -->
<!DOCTYPE svg PUBLIC "-//W3C//DTD SVG 1.1//EN" "http://www.w3.org/Graphics/SVG/1.1/DTD/svg11.dtd">
<svg version="1.1" id="Layer_1" xmlns="http://www.w3.org/2000/svg" xmlns:xlink="http://www.w3.org/1999/xlink" x="0px" y="0px"
	 width="33px" height="21px" viewBox="0 0 33 21" enable-background="new 0 0 33 21" xml:space="preserve">
<g>
	<polyline fill="#312D29" points="12,15 12,13 9,13 9,12 7,12 7,15 	"/>
	<rect x="3" y="5" fill="#312D29" width="3" height="3"/>
	<rect x="1" y="3" fill="none" stroke="#312D29" stroke-width="2" stroke-miterlimit="10" width="7" height="7"/>
	<polyline fill="#312D29" points="10,6 12,6 12,4 15,4 15,2 10,2 	"/>
	<polyline fill="#312D29" points="16,12 16,10 14,10 14,9 14,8 16,8 16,5 14,5 14,7 10,7 10,9 13,9 13,12 	"/>
	<rect x="10" y="10" fill="#312D29" width="2" height="2"/>
	<rect y="12" fill="#312D29" width="3" height="2"/>
	<polyline fill="#312D29" points="6,18 6,12 4,12 4,16 0,16 0,18 	"/>
	<polyline fill="#312D29" points="16,18 16,13 14,13 14,16 8,16 8,18 	"/>
</g>
<g>
	<polyline fill="#E9472D" points="29,15 29,13 26,13 26,12 24,12 24,15 	"/>
	<rect x="20" y="5" fill="#E9472D" width="3" height="3"/>
	<rect x="18" y="3" fill="none" stroke="#E9472D" stroke-width="2" stroke-miterlimit="10" width="7" height="7"/>
	<polyline fill="#E9472D" points="27,6 29,6 29,4 32,4 32,2 27,2 	"/>
	<polyline fill="#E9472D" points="33,12 33,10 31,10 31,9 31,8 33,8 33,5 31,5 31,7 27,7 27,9 30,9 30,12 	"/>
	<rect x="27" y="10" fill="#E9472D" width="2" height="2"/>
	<rect x="17" y="12" fill="#E9472D" width="3" height="2"/>
	<polyline fill="#E9472D" points="23,18 23,12 21,12 21,16 17,16 17,18 	"/>
	<polyline fill="#E9472D" points="33,18 33,13 31,13 31,16 25,16 25,18 	"/>
</g>
</svg>
