<?xml version="1.0" encoding="utf-8"?>
<!-- Generator: Adobe Illustrator 16.0.0, SVG Export Plug-In . SVG Version: 6.00 Build 0)  -->
<!DOCTYPE svg PUBLIC "-//W3C//DTD SVG 1.1//EN" "http://www.w3.org/Graphics/SVG/1.1/DTD/svg11.dtd">
<svg version="1.1" id="Layer_1" xmlns="http://www.w3.org/2000/svg" xmlns:xlink="http://www.w3.org/1999/xlink" x="0px" y="0px"
	 width="21px" height="21px" viewBox="0 0 21 21" enable-background="new 0 0 21 21" xml:space="preserve">
<g>
	<path fill="#E3DFC5" d="M4.976,14.75H1.81c-0.862,0-1.357-0.517-1.357-1.417V3.929c0-0.912,0.508-1.457,1.357-1.457H17.19
		c0.862,0,1.357,0.517,1.357,1.417v9.444c0,0.9-0.495,1.417-1.357,1.417H8.89l-3.914,3.268V14.75z"/>
	<path fill="#F4F3E9" d="M17.19,2.944c0.618,0,0.905,0.3,0.905,0.944v9.444c0,0.646-0.287,0.944-0.905,0.944H9.048H8.73
		l-0.248,0.207l-3.053,2.55v-1.812v-0.945H4.524H1.81c-0.617,0-0.905-0.299-0.905-0.944V3.929c0-0.653,0.304-0.984,0.905-0.984
		H17.19 M17.19,2H1.81C0.68,2,0,2.783,0,3.929v9.404c0,1.146,0.68,1.89,1.81,1.89h2.714c0,1.217,0,2.826,0,3.777
		c0,0,0,0,4.524-3.777h8.143c1.129,0,1.81-0.744,1.81-1.89V3.889C19,2.744,18.319,2,17.19,2L17.19,2z"/>
</g>
<g>
	<path fill="#F4F3E9" d="M18.119,19.422L15.854,17.5h-4.806c-0.5,0-0.786-0.304-0.786-0.833v-5.556c0-0.53,0.287-0.833,0.786-0.833
		h8.904c0.492,0,0.786,0.32,0.786,0.857v5.532c0,0.529-0.287,0.833-0.786,0.833h-1.833V19.422z"/>
	<path fill="#FFFFFF" d="M11.048,10.556h8.904c0.348,0,0.524,0.195,0.524,0.579v5.532c0,0.38-0.167,0.556-0.524,0.556h-1.571h-0.523
		v0.555v1.066l-1.769-1.5l-0.144-0.121h-0.184h-4.714c-0.358,0-0.524-0.176-0.524-0.556v-5.556
		C10.523,10.732,10.69,10.556,11.048,10.556 M11.048,10C10.394,10,10,10.438,10,11.111v5.556c0,0.674,0.394,1.11,1.048,1.11h4.714
		C18.381,20,18.381,20,18.381,20c0-0.56,0-1.506,0-2.223h1.571c0.654,0,1.048-0.437,1.048-1.11v-5.532C21,10.46,20.606,10,19.952,10
		H11.048L11.048,10z"/>
</g>
</svg>
