<?xml version="1.0" encoding="iso-8859-1"?>
<!DOCTYPE svg PUBLIC "-//W3C//DTD SVG 1.1//EN" "http://www.w3.org/Graphics/SVG/1.1/DTD/svg11.dtd">
<svg version="1.1" id="Layer_1" xmlns="http://www.w3.org/2000/svg" xmlns:xlink="http://www.w3.org/1999/xlink" x="0px" y="0px"
	 width="139.25px" height="139.25px" viewBox="0 0 139.25 139.25" style="enable-background:new 0 0 139.25 139.25;"
	 xml:space="preserve">
<path style="fill:none;stroke:#EC4724;stroke-width:13;stroke-miterlimit:10;" d="M57.199,67.452
	c-4.686,4.686-12.284,4.686-16.971,0L10.53,37.753c-4.687-4.686-4.686-12.284,0-16.971L20.783,10.53
	c4.687-4.688,12.284-4.688,16.971,0l29.698,29.697c4.687,4.688,4.687,12.285,0,16.971L57.199,67.452z"/>
<path style="fill:none;stroke:#EC4724;stroke-width:13;stroke-miterlimit:10;" d="M118.717,128.97
	c-4.686,4.687-12.284,4.687-16.971,0L72.048,99.271c-4.686-4.687-4.686-12.284,0-16.971l10.253-10.253
	c4.687-4.687,12.285-4.686,16.971,0l29.699,29.699c4.686,4.686,4.686,12.283,0,16.971L118.717,128.97z"/>
<line style="fill:none;stroke:#EC4724;stroke-width:13;stroke-linecap:round;stroke-miterlimit:10;" x1="44.647" y1="44.647" x2="93.791" y2="93.792"/>
</svg>
