<?xml version="1.0" encoding="utf-8"?>
<!-- Generator: Adobe Illustrator 16.0.0, SVG Export Plug-In . SVG Version: 6.00 Build 0)  -->
<!DOCTYPE svg PUBLIC "-//W3C//DTD SVG 1.1//EN" "http://www.w3.org/Graphics/SVG/1.1/DTD/svg11.dtd">
<svg version="1.1" id="Layer_1" xmlns="http://www.w3.org/2000/svg" xmlns:xlink="http://www.w3.org/1999/xlink" x="0px" y="0px"
	 width="24px" height="13px" viewBox="0 0 24 13" enable-background="new 0 0 24 13" xml:space="preserve">
<path fill="#EC4724" d="M-0.126,8.98c0,0,0.101,0.711,0.525,0.932c0,0,0.2,0.687,2.974,0.76c0.142,0.003,0.274,0.008,0.406,0.012
	c-0.03,0.125-0.048,0.255-0.048,0.389c0,0.938,0.776,1.699,1.733,1.699c0.916,0,1.663-0.694,1.727-1.576l0.031,0.015l10.899,0.265
	C18.21,12.332,18.947,13,19.845,13c0.958,0,1.733-0.761,1.733-1.699c0-0.142-0.02-0.277-0.053-0.409
	c0.295-0.003,1.156-0.018,1.869-0.098l0.6-0.734c0,0,0.05-0.368-0.15-0.516V8.662c0,0-0.024-0.711-0.724-0.833l-1.801-0.343
	c0,0,0.191-0.32-1.773-0.638c-1.959-0.317-3.25-0.188-3.25-0.188l0.024,0.384L14.446,5.5c0,0-0.176-0.245-1.1-0.318
	c0,0-5.974-0.564-8.624,1.592l-3.3,0.859c0,0-0.875,0.268-1.299,0.856S-0.126,8.98-0.126,8.98z"/>
<g>
	<path fill="#EC4724" d="M19.945,1v2.023h1.992v0.873h-1.992v2.042h-0.933V3.896h-1.992V3.023h1.992V1H19.945z"/>
</g>
</svg>
