<?xml version="1.0" encoding="utf-8"?>
<!-- Generator: Adobe Illustrator 16.0.0, SVG Export Plug-In . SVG Version: 6.00 Build 0)  -->
<!DOCTYPE svg PUBLIC "-//W3C//DTD SVG 1.1//EN" "http://www.w3.org/Graphics/SVG/1.1/DTD/svg11.dtd">
<svg version="1.1" id="Layer_1" xmlns="http://www.w3.org/2000/svg" xmlns:xlink="http://www.w3.org/1999/xlink" x="0px" y="0px"
	 width="360px" height="70px" viewBox="-130.5 11 360 70" enable-background="new -130.5 11 360 70" xml:space="preserve">
<path fill="#EC4622" d="M-85.5,81c8.285,0,15-6.716,15-15.001c0-8.283-6.715-14.999-15-14.999s-15,6.716-15,14.999
	C-100.5,74.284-93.785,81-85.5,81z M-93.5,63h16c1.461,0,3,1.538,3,2.999c0,1.463-1.539,3.001-3,3.001h-16c-1.462,0-3-1.537-3-3
	C-96.5,64.539-94.962,63-93.5,63z"/>
<path fill="#4B803C" d="M-115.5,81c8.285,0,15-6.716,15-15.001c0-8.283-6.715-14.999-15-14.999s-15,6.716-15,14.999
	C-130.5,74.284-123.785,81-115.5,81z M-123.5,63h16c1.461,0,3,1.538,3,2.999c0,1.463-1.539,3.001-3,3.001h-16c-1.462,0-3-1.537-3-3
	C-126.5,64.539-124.962,63-123.5,63z"/>
<polygon fill="#F4F3E9" points="-70.5,65 -70.5,81 -58.5,81 -58.5,71 -51.5,71 -51.5,81 -40.5,81 -40.5,65 -44.5,61 -44.5,52 
	-49.5,52 -49.5,57 -55.5,51 "/>
<path fill="#F4F3E9" d="M-13.5,53h-24c-1.783,0-3,1.248-3,3v14c0,1.752,1.217,3,3,3h4v6l7-6h13c1.783,0,3-1.248,3-3V56
	C-10.5,54.25-11.717,53-13.5,53z"/>
<g>
	<rect x="-115.5" y="11" fill="#524D46" width="28" height="9"/>
	<rect x="-130.5" y="11" fill="#524D46" width="9" height="9"/>
	<rect x="-115.5" y="26" fill="#524D46" width="28" height="9"/>
	<rect x="-130.5" y="26" fill="#524D46" width="9" height="9"/>
	<rect x="-115.5" y="41" fill="#524D46" width="28" height="9"/>
	<rect x="-130.5" y="41" fill="#524D46" width="9" height="9"/>
</g>
<ellipse fill="none" stroke="#F4F3E9" stroke-width="4" stroke-miterlimit="10" cx="4.509" cy="66" rx="11.991" ry="12.005"/>
<circle fill="#F4F3E9" cx="4.51" cy="66" r="5"/>
<polyline fill="none" stroke="#F4F3E9" stroke-width="4" stroke-miterlimit="10" points="4.509,78 4.509,66 14.509,59 "/>
<line fill="none" stroke="#F4F3E9" stroke-width="4" stroke-miterlimit="10" x1="4.533" y1="67" x2="-5.491" y2="59.176"/>
<path fill="#F4F3E9" d="M39.986,51.928c0,0-4.056-1.788-10.789-0.399c-4.558,0.94-9.697,4.641-9.697,15.312
	c0,11.777,6.021,12.842,9.091,13.414c1.926,0.358,3.881,0.429,5.392,0.404C35.103,80.957,36.128,81,36.85,81
	c5.018,0,12.65-5.082,12.65-15.561C49.5,55.399,44.703,52.18,39.986,51.928z M32.579,64.055l0.938,0.649
	c-0.143,0.448-0.223,0.938-0.223,1.449c0,0.366,0.042,0.722,0.117,1.059l-1.392,0.376c-0.003-0.236-0.009-0.475-0.009-0.706
	C32.012,65.982,32.22,65.012,32.579,64.055z M35.429,72.51c-1.014-0.015-2.017-0.276-2.869-0.758
	c-0.059-0.181-0.093-0.373-0.141-0.561l2.146-1.886c0.38,0.353,0.824,0.599,1.307,0.71L35.429,72.51z M37.425,62.419
	c-0.309-0.125-0.638-0.194-0.979-0.194c-0.414,0-0.81,0.102-1.173,0.283l-0.996-1.409c0.504-0.618,1.071-1.18,1.696-1.636
	c0.576,0.003,1.177,0.098,1.751,0.327L37.425,62.419z M38.741,71.499l-0.629-2.013c0.443-0.347,0.813-0.826,1.073-1.395
	c0.062-0.006,0.119-0.01,0.182-0.016l0.035-0.112c0.146-0.006,0.283-0.051,0.405-0.128l0.91,0.536
	C40.382,69.799,39.66,70.826,38.741,71.499z M39.513,65.259c-0.106-0.569-0.312-1.09-0.593-1.534l1.128-1.729
	c0.373,0.736,0.649,1.665,0.784,2.826L39.513,65.259z"/>
<g>
	<path fill="#F4F2E9" d="M71.356,58.959l-0.921-3.245c-1.614,0.24-4.265,3.366-4.265,3.366l1.038,3.484
		C67.209,62.564,69.627,59.681,71.356,58.959z"/>
	<path fill="#F4F2E9" d="M66.171,59.08l-0.921-3.967c1.268-1.442,4.147-3.365,4.147-3.365l1.038,3.966c0,0,1.844-1.441,4.839,0.121
		l0.922,3.605c0,0-2.881-1.443-4.84-0.481l1.036,3.366c0,0,2.42-1.202,4.609-0.481l0.979,3.286c0.332,0.032,0.52,0.079,0.52,0.079
		l-4.033-13.221c0,0-3.226-1.442-5.761-0.841c-2.535,0.601-3.919,4.206-7.144,6.49c-0.255,0.18-0.517,0.334-0.78,0.466l0.896,3.62
		C61.678,61.724,63.405,62.204,66.171,59.08z"/>
	<path fill="#F4F2E9" d="M62.714,65.569l0.808,3.365c0,0,2.766-0.119,4.608-3.005l-0.921-3.365
		C67.209,62.564,65.94,64.849,62.714,65.569z"/>
	<path fill="#F4F2E9" d="M73.545,66.051l-1.152-3.726c0,0-3.687,2.884-4.263,3.604l1.152,3.727c0,0-2.534,2.765-4.608,3.124
		l-1.152-3.846c0,0-3.687,0.481-4.725,0.481L57.53,65.69c0,0,4.723,0.239,5.184-0.12l-1.036-3.847
		c-0.807,0.24-4.956,0.48-4.956,0.48l-0.91-3.687c-0.047-0.011-0.093-0.021-0.136-0.03c0.366-0.504,0.586-1.13,0.586-1.811
		c0-1.66-1.291-3.006-2.88-3.006c-1.591,0-2.882,1.346-2.882,3.005c0,1.365,0.873,2.516,2.069,2.882l-0.173,0.049L57.927,81
		l2.893-0.812l-1.657-6.411c0.607,0.061,2.353,0.118,5.512-0.635c4.032-0.962,5.53-5.048,8.297-6.73
		c0.375-0.229,0.744-0.419,1.101-0.578C73.89,65.897,73.712,65.969,73.545,66.051z"/>
</g>
<g>
	
		<rect x="103.266" y="49.977" transform="matrix(0.7069 -0.7073 0.7073 0.7069 -9.1118 90.2756)" fill="#F5F3EA" width="2.205" height="12.31"/>
	<path fill="#F5F3EA" d="M91.082,60.713l2.566,2.565l-6.989,6.989c-0.541-0.171-1.102-0.258-1.664-0.258
		c-1.406,0-2.812,0.536-3.886,1.609c-2.146,2.146-2.146,5.625,0,7.771C82.183,80.464,83.589,81,84.995,81s2.812-0.536,3.886-1.609
		c1.502-1.502,1.951-3.655,1.352-5.549l6.989-6.989l2.566,2.565l7.65-7.651l-8.705-8.705L91.082,60.713z M86.957,77.466
		c-0.524,0.524-1.221,0.812-1.962,0.812c-0.74,0-1.438-0.288-1.961-0.812c-1.082-1.081-1.082-2.841,0-3.922
		c0.523-0.524,1.221-0.812,1.962-0.812c0.74,0,1.437,0.288,1.961,0.812c0.523,0.523,0.812,1.22,0.812,1.961
		S87.48,76.942,86.957,77.466z M100.429,60.071c0.898,0.898,0.898,2.354,0,3.253s-2.354,0.898-3.253,0s-0.898-2.354,0-3.253
		S99.53,59.173,100.429,60.071z"/>
</g>
<path fill="#F4F2E9" d="M139.287,55.963l-0.006,0.006l-2.725,2.725l-3.245,0.87l-2.375-2.376l0.869-3.244l2.726-2.726l0.005-0.006
	c-2.2-0.569-4.637,0.007-6.36,1.73c-1.693,1.693-2.279,4.074-1.759,6.243l-16.105,16.106c-1.082,1.081-1.082,2.835,0,3.917
	l0.979,0.979c1.082,1.082,2.836,1.081,3.918,0l16.105-16.105c2.17,0.52,4.551-0.066,6.244-1.76
	C139.281,60.6,139.857,58.163,139.287,55.963z"/>
<g>
	<path fill="#F4F2E9" d="M139.5,51v8.139V81h30V59.139V51H139.5z M167.5,79h-26V59h26V79z"/>
	<path fill="#F4F2E9" d="M150.814,67.644c0.988,0,2.023-0.484,2.023-1.564c0-1.125-0.833-1.478-1.866-1.478
		c0.651-0.684,1.371-0.838,2.293-0.838c1.393,0,2.695,0.573,2.695,2.116c0,1.632-1.258,1.919-2.674,1.919v1.764
		c1.686,0,3.079,0.264,3.079,2.227c0,1.962-1.73,2.446-3.371,2.446c-0.585,0-1.843-0.33-2.225-0.814
		c1.033,0,1.865-0.486,1.865-1.566c0-1.058-0.854-1.741-1.888-1.741c-1.438,0-2.247,0.815-2.247,2.249
		c0,3.108,3.056,3.638,5.91,3.638c3.349,0,6.09-0.771,6.09-4.078c0-2.227-1.482-2.955-3.394-3.44v-0.044
		c1.664-0.309,2.99-1.08,2.99-2.91c0-2.889-3.552-3.527-5.844-3.527c-2.337,0-5.438,0.859-5.438,3.659
		C148.814,66.828,149.646,67.644,150.814,67.644z"/>
</g>
<path fill="#F5F2E9" d="M169.5,51v30h30V51H169.5z M180.5,75V57l10,9L180.5,75z"/>
<polygon fill="#F4F2E9" points="228.5,61 221.5,61 221.5,51 207.5,51 207.5,61 200.5,61 214.5,76 202.5,76 202.5,81 226.5,81 
	226.5,76 214.5,76 "/>
</svg>
