<?xml version="1.0" encoding="utf-8"?>
<!-- Generator: Adobe Illustrator 16.0.0, SVG Export Plug-In . SVG Version: 6.00 Build 0)  -->
<!DOCTYPE svg PUBLIC "-//W3C//DTD SVG 1.1//EN" "http://www.w3.org/Graphics/SVG/1.1/DTD/svg11.dtd">
<svg version="1.1" id="Layer_1" xmlns="http://www.w3.org/2000/svg" xmlns:xlink="http://www.w3.org/1999/xlink" x="0px" y="0px"
	 width="65px" height="11px" viewBox="0 0 65 11" enable-background="new 0 0 65 11" xml:space="preserve">
<polygon fill="#E3DFC6" points="55,1 55,11 59,6 "/>
<polygon fill="#E3DFC6" points="60,1 60,11 64,6 "/>
<polygon fill="#E3DFC6" points="47,1 47,11 51,6 "/>
<polygon fill="#E3DFC6" points="18,11 18,1 14,6 "/>
<polygon fill="#E3DFC6" points="10,11 10,1 6,6 "/>
<polygon fill="#E3DFC6" points="5,11 5,1 1,6 "/>
<g>
	<path fill="#FFFFFF" d="M31.651,8.767c-0.058,0-0.115-0.009-0.17-0.023v0.472h0.392c0.11-0.449,0.434-0.821,0.865-1.018
		c-0.426-0.192-0.746-0.557-0.859-0.996h-0.397v0.476c0.055-0.016,0.112-0.024,0.171-0.024c0.328,0,0.594,0.25,0.594,0.557
		C32.246,8.517,31.98,8.767,31.651,8.767z"/>
	<path fill="#FFFFFF" d="M35.2,4.908c0.065,0,0.129,0.011,0.188,0.029V4.512h-0.396c-0.113,0.433-0.428,0.793-0.846,0.988
		c0.418,0.194,0.732,0.555,0.846,0.988h0.396V5.994c-0.059,0.019-0.122,0.028-0.188,0.028c-0.327,0-0.594-0.25-0.594-0.557
		C34.606,5.158,34.873,4.908,35.2,4.908z"/>
	<path fill="#FFFFFF" d="M31.651,6.022c-0.058,0-0.115-0.008-0.17-0.022v0.488h0.397c0.113-0.433,0.428-0.793,0.844-0.988
		c-0.416-0.194-0.73-0.554-0.844-0.988h-0.397v0.42c0.055-0.015,0.112-0.023,0.17-0.023c0.329,0,0.595,0.25,0.595,0.558
		C32.246,5.772,31.98,6.022,31.651,6.022z"/>
	<path fill="#FFFFFF" d="M33.435,5.333c0.694,0,1.258-0.528,1.258-1.178c0-0.651-0.563-1.18-1.258-1.18
		c-0.692,0-1.257,0.53-1.257,1.18S32.742,5.333,33.435,5.333z"/>
	<path fill="#FFFFFF" d="M33.435,0.272c-0.692,0-1.257,0.528-1.257,1.178s0.564,1.178,1.257,1.178c0.694,0,1.258-0.528,1.258-1.178
		S34.129,0.272,33.435,0.272z"/>
	<path fill="#FFFFFF" d="M33.435,10.729c0.694,0,1.258-0.528,1.258-1.18s-0.563-1.179-1.258-1.179c-0.692,0-1.257,0.527-1.257,1.179
		S32.742,10.729,33.435,10.729z"/>
	<path fill="#FFFFFF" d="M34.692,6.845c0-0.649-0.563-1.179-1.258-1.179c-0.692,0-1.257,0.529-1.257,1.179
		c0,0.651,0.564,1.18,1.257,1.18C34.129,8.024,34.692,7.496,34.692,6.845z"/>
	<path fill="#FFFFFF" d="M31.942,10.987c0-0.149-0.13-0.271-0.291-0.271c-0.159,0-0.29,0.121-0.29,0.271
		c0,0.004,0.002,0.009,0.002,0.013h0.578C31.941,10.996,31.942,10.991,31.942,10.987z"/>
	<path fill="#FFFFFF" d="M34.91,0.083c0,0.15,0.13,0.273,0.29,0.273s0.29-0.123,0.29-0.273c0-0.029-0.006-0.057-0.015-0.083h-0.55
		C34.917,0.026,34.91,0.054,34.91,0.083z"/>
	<path fill="#FFFFFF" d="M34.991,1.094h0.396V0.611C35.329,0.63,35.266,0.64,35.2,0.64c-0.327,0-0.594-0.25-0.594-0.558
		c0-0.028,0.003-0.056,0.008-0.083h-0.59v0.054C34.502,0.232,34.867,0.619,34.991,1.094z"/>
	<path fill="#FFFFFF" d="M31.651,0.354c0.161,0,0.291-0.122,0.291-0.272c0-0.029-0.007-0.057-0.017-0.083h-0.549
		c-0.01,0.026-0.016,0.054-0.016,0.083"/>
	<path fill="#FFFFFF" d="M31.885,9.928h-0.403v0.526c0.054-0.015,0.112-0.023,0.17-0.023c0.329,0,0.595,0.249,0.595,0.557
		c0,0.004-0.001,0.009-0.001,0.013h0.653v-0.034C32.402,10.799,32.019,10.41,31.885,9.928z"/>
	<path fill="#FFFFFF" d="M35.2,2.257c0.065,0,0.129,0.011,0.188,0.029V1.807h-0.396c-0.115,0.438-0.436,0.803-0.859,0.996
		c0.424,0.193,0.744,0.556,0.859,0.996h0.396V3.343c-0.059,0.019-0.122,0.028-0.188,0.028c-0.327,0-0.594-0.25-0.594-0.557
		S34.873,2.257,35.2,2.257z"/>
	<path fill="#FFFFFF" d="M31.651,0.64c-0.058,0-0.115-0.008-0.17-0.023v0.477h0.397c0.128-0.493,0.516-0.891,1.02-1.06V0h-0.66
		c0.005,0.027,0.008,0.055,0.008,0.083C32.246,0.39,31.98,0.64,31.651,0.64z"/>
	<path fill="#FFFFFF" d="M35.2,2.542c-0.16,0-0.29,0.122-0.29,0.272s0.13,0.272,0.29,0.272s0.29-0.122,0.29-0.272
		S35.36,2.542,35.2,2.542z"/>
	<path fill="#FFFFFF" d="M35.2,5.194c-0.16,0-0.29,0.122-0.29,0.272s0.13,0.271,0.29,0.271s0.29-0.121,0.29-0.271
		S35.36,5.194,35.2,5.194z"/>
	<path fill="#FFFFFF" d="M35.2,10.717c-0.16,0-0.29,0.121-0.29,0.271c0,0.004,0.001,0.009,0.001,0.013h0.578
		c0-0.004,0.001-0.009,0.001-0.013C35.49,10.838,35.36,10.717,35.2,10.717z"/>
	<path fill="#FFFFFF" d="M31.481,1.807v0.474c0.055-0.015,0.112-0.024,0.171-0.024c0.328,0,0.594,0.25,0.594,0.558
		s-0.266,0.557-0.594,0.557c-0.059,0-0.116-0.008-0.171-0.023v0.45h0.397c0.113-0.439,0.434-0.803,0.859-0.996
		c-0.426-0.193-0.746-0.558-0.859-0.996H31.481L31.481,1.807z"/>
	<polygon fill="#FFFFFF" points="31.017,0 28,0 28,3 29,3 29,8 28,8 28,11 31.017,11 	"/>
	<path fill="#FFFFFF" d="M39,3.438V2.75C39,1.255,37.661,0,36.066,0H36v11h0.066C37.661,11,39,9.745,39,8.25V7.562
		c0-1.117-0.953-2.011-2.127-2.062C38.047,5.448,39,4.555,39,3.438z"/>
	<path fill="#FFFFFF" d="M35.49,8.209c0-0.149-0.13-0.271-0.29-0.271s-0.29,0.122-0.29,0.271c0,0.15,0.13,0.273,0.29,0.273
		S35.49,8.359,35.49,8.209z"/>
	<path fill="#FFFFFF" d="M31.651,5.737c0.161,0,0.291-0.121,0.291-0.271s-0.13-0.272-0.291-0.272c-0.159,0-0.29,0.122-0.29,0.272
		C31.362,5.616,31.492,5.737,31.651,5.737z"/>
	<path fill="#FFFFFF" d="M31.362,2.814c0,0.15,0.13,0.272,0.29,0.272s0.29-0.122,0.29-0.272s-0.13-0.273-0.29-0.273
		S31.362,2.664,31.362,2.814z"/>
	<ellipse fill="#FFFFFF" cx="31.651" cy="8.21" rx="0.291" ry="0.272"/>
	<path fill="#FFFFFF" d="M35.2,10.431c0.065,0,0.129,0.01,0.188,0.028V9.928h-0.402c-0.129,0.467-0.491,0.844-0.961,1.019V11h0.583
		c0-0.004-0.001-0.009-0.001-0.013C34.606,10.68,34.873,10.431,35.2,10.431z"/>
	<path fill="#FFFFFF" d="M35.388,8.737c-0.059,0.02-0.122,0.029-0.188,0.029c-0.327,0-0.594-0.25-0.594-0.558
		c0-0.307,0.267-0.557,0.594-0.557c0.065,0,0.129,0.01,0.188,0.028V7.201h-0.396c-0.115,0.438-0.436,0.804-0.859,0.996
		c0.431,0.196,0.755,0.568,0.864,1.018h0.392V8.737z"/>
</g>
</svg>
