<?xml version="1.0" encoding="utf-8"?>
<!-- Generator: Adobe Illustrator 16.0.0, SVG Export Plug-In . SVG Version: 6.00 Build 0)  -->
<!DOCTYPE svg PUBLIC "-//W3C//DTD SVG 1.1//EN" "http://www.w3.org/Graphics/SVG/1.1/DTD/svg11.dtd">
<svg version="1.1" id="Layer_1" xmlns="http://www.w3.org/2000/svg" xmlns:xlink="http://www.w3.org/1999/xlink" x="0px" y="0px"
	 width="315px" height="105px" viewBox="-0.419 -0.221 315 105" enable-background="new -0.419 -0.221 315 105"
	 xml:space="preserve">
<path fill="#302C29" d="M310.448,44.756c-5.525-7.801-16.9-11.375-16.9-11.375l-42.9-11.375
	C216.198-6.594,138.522,0.881,138.522,0.881c-12.025,0.975-14.301,4.225-14.301,4.225L99.847,25.58l0.326-5.091
	c0,0-16.789-1.719-42.25,2.49c-25.566,4.227-23.076,8.45-23.076,8.45l-23.399,4.55c-9.101,1.625-9.425,11.052-9.425,11.052V58.73
	c-2.6,1.95-1.95,6.825-1.95,6.825l7.8,9.75c9.262,1.06,20.459,1.255,24.303,1.292c-0.432,1.74-0.686,3.551-0.686,5.425
	c0,12.445,10.088,22.534,22.533,22.534c11.668,0,21.265-8.867,22.418-20.229l141.707-3.496l0.408-0.204
	c0.842,11.679,10.56,20.896,22.451,20.896c12.445,0,22.533-10.088,22.533-22.532c0-1.773-0.227-3.491-0.613-5.146
	c1.689-0.059,3.432-0.113,5.271-0.163c36.074-0.976,38.674-10.075,38.674-10.075c5.525-2.925,6.826-12.35,6.826-12.35
	S315.971,52.556,310.448,44.756z"/>
</svg>
