<?xml version="1.0" encoding="utf-8"?>
<!-- Generator: Adobe Illustrator 16.0.0, SVG Export Plug-In . SVG Version: 6.00 Build 0)  -->
<!DOCTYPE svg PUBLIC "-//W3C//DTD SVG 1.1//EN" "http://www.w3.org/Graphics/SVG/1.1/DTD/svg11.dtd">
<svg version="1.1" id="Layer_1" xmlns="http://www.w3.org/2000/svg" xmlns:xlink="http://www.w3.org/1999/xlink" x="0px" y="0px"
	 width="116px" height="60px" viewBox="-10.5 11.5 116 60" enable-background="new -10.5 11.5 116 60" xml:space="preserve">
<g>
	<line fill="none" stroke="#524D46" stroke-width="3" x1="17.5" y1="26.5" x2="13.5" y2="30.5"/>
	<line fill="none" stroke="#524D46" stroke-width="4" stroke-linecap="round" x1="14.5" y1="29.5" x2="9.5" y2="34.5"/>
	<path fill="#524D46" d="M21.5,16.5c-3.313,0-6,2.687-6,6c0,3.312,2.687,6,6,6s6-2.688,6-6C27.5,19.187,24.813,16.5,21.5,16.5z
		 M21.5,26c-1.933,0-3.5-1.566-3.5-3.5c0-1.934,1.567-3.5,3.5-3.5c1.934,0,3.5,1.566,3.5,3.5C25,24.434,23.434,26,21.5,26z"/>
</g>
<g>
	<line fill="none" stroke="#F2EFE6" stroke-width="3" x1="17.5" y1="56.5" x2="13.5" y2="60.5"/>
	<line fill="none" stroke="#F2EFE6" stroke-width="4" stroke-linecap="round" x1="14.5" y1="59.5" x2="9.5" y2="64.5"/>
	<path fill="#F2EFE6" d="M21.5,46.5c-3.313,0-6,2.688-6,6s2.687,6,6,6s6-2.688,6-6S24.813,46.5,21.5,46.5z M21.5,56
		c-1.933,0-3.5-1.566-3.5-3.5s1.567-3.5,3.5-3.5c1.934,0,3.5,1.566,3.5,3.5S23.434,56,21.5,56z"/>
</g>
<g>
	<line fill="none" stroke="#EC4622" stroke-width="3" x1="77.5" y1="26.5" x2="73.5" y2="30.5"/>
	<line fill="none" stroke="#EC4622" stroke-width="4" stroke-linecap="round" x1="74.5" y1="29.5" x2="69.5" y2="34.5"/>
	<path fill="#EC4622" d="M81.5,16.5c-3.312,0-6,2.687-6,6c0,3.312,2.688,6,6,6s6-2.688,6-6C87.5,19.187,84.812,16.5,81.5,16.5z
		 M81.5,26c-1.934,0-3.5-1.566-3.5-3.5c0-1.934,1.566-3.5,3.5-3.5s3.5,1.566,3.5,3.5C85,24.434,83.434,26,81.5,26z"/>
</g>
</svg>
