<?xml version="1.0" encoding="utf-8"?>
<!-- Generator: Adobe Illustrator 16.0.0, SVG Export Plug-In . SVG Version: 6.00 Build 0)  -->
<!DOCTYPE svg PUBLIC "-//W3C//DTD SVG 1.1//EN" "http://www.w3.org/Graphics/SVG/1.1/DTD/svg11.dtd">
<svg version="1.1" id="Layer_1" xmlns="http://www.w3.org/2000/svg" xmlns:xlink="http://www.w3.org/1999/xlink" x="0px" y="0px"
	 width="22px" height="39px" viewBox="0.5 0 22 39" enable-background="new 0.5 0 22 39" xml:space="preserve">
<polygon fill="#EC4622" points="22.5,10 18.5,10 18.5,13 11.5,6.5 18.5,0 18.5,3 22.5,3 "/>
<polygon fill="#E3DFC5" points="11.5,10 7.5,10 7.5,13 0.5,6.5 7.5,0 7.5,3 11.5,3 "/>
<polygon fill="#524D46" points="7.5,16 7.5,13 0.5,19.5 7.5,26 7.5,23 15.5,23 15.5,26 22.5,19.5 15.5,13 15.5,16 "/>
<polygon fill="#EC4622" points="11.5,29 15.5,29 15.5,26 22.5,32.5 15.5,39 15.5,36 11.5,36 "/>
<polygon fill="#E3DFC5" points="0.5,29 4.5,29 4.5,26 11.5,32.5 4.5,39 4.5,36 0.5,36 "/>
</svg>
