<?xml version="1.0" encoding="utf-8"?>
<!-- Generator: Adobe Illustrator 16.0.0, SVG Export Plug-In . SVG Version: 6.00 Build 0)  -->
<!DOCTYPE svg PUBLIC "-//W3C//DTD SVG 1.1//EN" "http://www.w3.org/Graphics/SVG/1.1/DTD/svg11.dtd">
<svg version="1.1" id="Layer_1" xmlns="http://www.w3.org/2000/svg" xmlns:xlink="http://www.w3.org/1999/xlink" x="0px" y="0px"
	 width="400px" height="20px" viewBox="-10.5 11.5 400 20" enable-background="new -10.5 11.5 400 20" xml:space="preserve">
<path fill="#E3DFC5" d="M369.5,11.345h-20h-20h-20h-20h-20h-20h-20h-20v20h20h20h20h20h20h20h20h20h20v-20H369.5z M223.938,16.241
	c1.215,0,2.562,0.885,2.562,2.104c-1.211,0-2.915,0-5,0C221.499,17.124,222.723,16.241,223.938,16.241z M215.042,16.282
	c1.215,0,2.458,0.875,2.458,2.084c-1.307,0-3.566,0-5,0C212.5,17.145,213.827,16.282,215.042,16.282z M219.5,29.448
	c-4.584,0-8-4.604-8-9.207c7.402,0,8.383,0,16,0C227.5,24.845,224.084,29.448,219.5,29.448z M244.5,16.345
	c1.191,0.232,2.232,1.807,2,3c-1.188-0.232-2.953-0.602-5-1C241.732,17.151,243.307,16.114,244.5,16.345z M234.5,16.345
	c1.191-0.23,2.77,0.809,3,2c-1.282,0.25-3.633,0.734-5,1C232.268,18.151,233.307,16.577,234.5,16.345z M231.5,29.345
	c0-4.586,3.416-9.156,8-9.156s8,4.57,8,9.156C240.1,29.345,239.118,29.345,231.5,29.345z M266.5,16.345c0.232,1.191-0.809,2.77-2,3
	c-1.193,0.232-2.768-0.807-3-2C262.688,17.114,264.452,16.743,266.5,16.345z M252.5,16.345c1.282,0.25,3.633,0.734,5,1
	c-0.232,1.193-1.809,2.232-3,2S252.268,17.538,252.5,16.345z M265.5,28.345c-0.561-3.365-2.477-5-6-5s-5.439,1.635-6,5h-2
	c0.572-4.02,3.814-7.172,8-7.172s7.428,3.152,8,7.172H265.5z M283.5,16.345c1.216,0,2,0.79,2,2s-0.79,2-2,2c-1.216,0-2-0.79-2-2
	S282.29,16.345,283.5,16.345z M275.5,16.345c1.216,0,2,0.79,2,2s-0.79,2-2,2c-1.217,0-2-0.79-2-2S274.284,16.345,275.5,16.345z
	 M287.5,25.345h-16v-2h16V25.345z M306.5,16.345c0.23,1.191-0.809,2.77-2,3c-1.193,0.232-2.768-0.807-3-2
	C302.688,17.114,304.452,16.743,306.5,16.345z M292.5,16.345c1.283,0.249,3.634,0.734,5,1c-0.23,1.193-1.807,2.232-3,2
	C293.309,19.114,292.268,17.538,292.5,16.345z M307.5,23.345l-16,3v-2l16-3V23.345z M324.5,16.345c1.191,0.232,2.23,1.807,2,3
	c-1.189-0.23-2.953-0.602-5-1C321.73,17.151,323.307,16.114,324.5,16.345z M314.5,16.345c1.193-0.23,2.77,0.807,3,2
	c-1.283,0.25-3.633,0.734-5,1C312.268,18.151,313.309,16.577,314.5,16.345z M326.92,23.288c-0.002,2.041-1.652,3.693-3.693,3.693
	c-1.845,0-3.369-1.355-3.644-3.128c-2.847,0.005-5.692-0.235-8.506-0.729c0.067-0.394,0.137-0.787,0.205-1.18
	c5.438,0.947,10.997,0.947,16.436,0c0.068,0.393,0.138,0.786,0.205,1.18C327.59,23.185,327.254,23.239,326.92,23.288z
	 M335.506,19.345c-1.105,0-2-0.898-2-2H333.5c0-1.102,0.896-2,2-2s2,0.898,2,2S336.604,19.345,335.506,19.345z M339.501,27.845
	c-1.104,0-2.001-0.896-2.001-1.999s0.896-2.001,1.996-2.001c1.105,0,2.004,0.898,2.004,2.001S340.604,27.845,339.501,27.845z
	 M343.503,19.345c-1.106,0-2.003-0.898-2.003-2s0.896-2,1.997-2c1.106,0,2.003,0.898,2.003,2S344.604,19.345,343.503,19.345z
	 M363.938,17.241c1.215,0,2.562,0.885,2.562,2.104c-1.211,0-2.915,0-5,0C361.499,18.124,362.723,17.241,363.938,17.241z
	 M352.5,18.345h5v1h-5V18.345z M359.5,28.517c-4.186,0-7.428-3.152-8-7.172h2c0.561,3.365,2.477,5,6,5s5.439-1.635,6-5h2
	C366.928,25.364,363.686,28.517,359.5,28.517z M379.5,28.517c-4.186,0-7.428-3.152-8-7.172h2c0.561,3.365,2.477,5,6,5
	s5.439-1.635,6-5h2C386.928,25.364,383.686,28.517,379.5,28.517z M384.1,21.395c-1.99,0-3.613-1.565-3.709-3.522
	c-0.592-0.067-1.19-0.067-1.783,0c-0.096,1.957-1.717,3.474-3.697,3.474c-2.049,0-3.71-1.612-3.71-3.651s1.661-2.197,3.7-2.197
	c1.728,0,3.181,0.113,3.592,1.369c0.668-0.076,1.347-0.076,2.015,0c0.412-1.256,1.864-1.369,3.583-1.369
	c2.049,0,3.712,0.158,3.712,2.197C387.801,19.731,386.139,21.395,384.1,21.395z"/>
<polygon fill="#E3DFC5" points="198.5,26.5 190.5,22.699 190.5,20.307 198.5,16.5 198.5,19.363 193.639,21.508 198.5,23.656 "/>
<polygon fill="#E3DFC5" points="200.5,23.654 205.361,21.508 200.5,19.363 200.5,16.5 208.5,20.309 208.5,22.698 200.5,26.5 "/>
<path fill="#E3DFC5" d="M187.5,16.829c-0.846,0.397-1.532,0.741-2.055,1.03c-0.523,0.289-1.055,0.668-1.594,1.141
	c-0.522,0.458-0.916,0.926-1.177,1.406c-0.26,0.479-0.444,1.104-0.553,1.873h1.294c1.12,0,1.996,0.226,2.637,0.677
	c0.641,0.453,0.959,1.114,0.959,1.987c0,0.623-0.281,1.203-0.85,1.746c-0.566,0.539-1.348,0.811-2.338,0.811
	c-1.551,0-2.657-0.418-3.324-1.254c-0.666-0.836-1.001-1.936-1.001-3.294c0-0.96,0.252-1.837,0.756-2.629
	c0.505-0.79,1.119-1.496,1.841-2.118c0.736-0.635,1.521-1.174,2.352-1.618c0.826-0.444,1.521-0.808,2.08-1.087L187.5,16.829z"/>
<path fill="#E3DFC5" d="M179.5,16.828c-0.846,0.398-1.532,0.74-2.052,1.031c-0.525,0.289-1.056,0.668-1.597,1.139
	c-0.522,0.459-0.914,0.927-1.177,1.408c-0.259,0.479-0.444,1.104-0.553,1.873h1.294c1.12,0,1.996,0.226,2.637,0.677
	s0.959,1.114,0.959,1.987c0,0.623-0.281,1.205-0.851,1.746c-0.565,0.539-1.349,0.811-2.337,0.811c-1.553,0-2.657-0.418-3.324-1.254
	c-0.666-0.836-1.001-1.936-1.001-3.294c0-0.96,0.253-1.839,0.757-2.629c0.506-0.79,1.118-1.496,1.84-2.119
	c0.736-0.636,1.521-1.173,2.35-1.616c0.828-0.445,1.521-0.807,2.082-1.088L179.5,16.828z"/>
<line fill="none" stroke="#E3DFC5" stroke-width="2" stroke-miterlimit="10" x1="156.5" y1="16.5" x2="167.5" y2="16.5"/>
<line fill="none" stroke="#E3DFC5" stroke-width="2" stroke-miterlimit="10" x1="156.5" y1="21.5" x2="167.5" y2="21.5"/>
<line fill="none" stroke="#E3DFC5" stroke-width="2" stroke-miterlimit="10" x1="156.5" y1="26.5" x2="167.5" y2="26.5"/>
<g>
	<path fill="#E3DFC6" d="M151.5,16.501c0-1.175,0.839-2.001,2.016-2.001c1.178,0,1.984,0.826,1.984,2.001
		c0,1.144-0.775,1.999-2.018,1.999C152.309,18.5,151.5,17.645,151.5,16.501z"/>
</g>
<g>
	<path fill="#E3DFC6" d="M151.5,21.5c0-1.174,0.839-2,2.016-2c1.178,0,1.984,0.827,1.984,2c0,1.141-0.775,2-2.02,2
		C152.309,23.498,151.5,22.641,151.5,21.5z"/>
</g>
<g>
	<path fill="#E3DFC6" d="M151.5,26.5c0-1.176,0.839-2,2.016-2c1.178,0,1.984,0.826,1.984,2c0,1.143-0.775,2-2.02,2
		C152.309,28.5,151.5,27.643,151.5,26.5z"/>
</g>
<path fill="#E3DFC5" d="M134,18.5h-0.874v-2.879c-0.317,0.26-0.693,0.454-1.126,0.579v-0.691c0.227-0.067,0.476-0.19,0.743-0.373
	c0.266-0.182,0.447-0.394,0.547-0.636h0.708L134,18.5L134,18.5z"/>
<path fill="#E3DFC5" d="M134.5,22.79v0.71h-3c0.033-0.268,0.131-0.521,0.292-0.762c0.164-0.24,0.483-0.562,0.963-0.956
	c0.385-0.322,0.622-0.537,0.708-0.653c0.117-0.156,0.176-0.314,0.176-0.467c0-0.171-0.05-0.301-0.153-0.395
	c-0.102-0.093-0.246-0.137-0.426-0.137c-0.176,0-0.319,0.046-0.425,0.143c-0.107,0.098-0.167,0.256-0.182,0.479L131.6,20.68
	c0.049-0.422,0.21-0.724,0.477-0.906c0.271-0.182,0.605-0.271,1.007-0.271c0.439,0,0.787,0.104,1.039,0.316
	c0.253,0.214,0.376,0.478,0.376,0.791c0,0.181-0.035,0.351-0.107,0.512c-0.073,0.163-0.186,0.333-0.344,0.509
	c-0.103,0.117-0.289,0.287-0.56,0.513c-0.271,0.219-0.441,0.364-0.513,0.438c-0.074,0.072-0.131,0.145-0.176,0.212L134.5,22.79
	L134.5,22.79z"/>
<path fill="#E3DFC5" d="M131.5,27.391l0.837-0.086c0.026,0.186,0.099,0.326,0.215,0.424c0.115,0.102,0.258,0.146,0.426,0.146
	c0.178,0,0.329-0.059,0.452-0.174c0.121-0.119,0.181-0.277,0.181-0.479c0-0.188-0.057-0.34-0.174-0.451
	c-0.119-0.107-0.26-0.162-0.428-0.162c-0.113,0-0.244,0.018-0.399,0.057l0.097-0.611c0.234,0.004,0.413-0.039,0.536-0.135
	c0.125-0.092,0.186-0.217,0.186-0.371c0-0.133-0.044-0.236-0.136-0.314c-0.09-0.074-0.209-0.113-0.36-0.113
	c-0.147,0-0.272,0.043-0.376,0.131c-0.106,0.09-0.167,0.225-0.191,0.393l-0.799-0.117c0.057-0.234,0.14-0.426,0.252-0.566
	c0.11-0.143,0.266-0.252,0.468-0.338c0.198-0.078,0.423-0.119,0.671-0.119c0.428,0,0.767,0.119,1.026,0.352
	c0.208,0.193,0.315,0.41,0.315,0.652c0,0.346-0.216,0.619-0.65,0.826c0.258,0.047,0.465,0.152,0.621,0.32
	c0.155,0.17,0.23,0.371,0.23,0.605c0,0.346-0.145,0.639-0.433,0.883c-0.29,0.238-0.649,0.359-1.082,0.359
	c-0.41,0-0.746-0.104-1.016-0.309C131.699,27.989,131.546,27.719,131.5,27.391z"/>
<g>
	<path fill="#E3DFC5" d="M113.5,24.531l2.898-0.33c0.173,1.145,0.528,1.99,1.061,2.527c0.533,0.535,1.254,0.807,2.16,0.807
		c0.959,0,1.683-0.239,2.17-0.719c0.485-0.481,0.73-1.037,0.73-1.682c0-0.41-0.104-0.762-0.308-1.052
		c-0.204-0.284-0.562-0.538-1.071-0.751c-0.352-0.145-1.145-0.396-2.386-0.762c-1.597-0.467-2.718-1.038-3.361-1.721
		c-0.906-0.957-1.361-2.123-1.361-3.5c0-0.885,0.213-1.715,0.64-2.483c0.424-0.771,1.041-1.358,1.841-1.765
		c0.803-0.401,1.77-0.604,2.905-0.604c1.852,0,3.245,0.479,4.183,1.438c0.937,0.959,1.429,2.234,1.477,3.832l-2.981,0.154
		c-0.127-0.895-0.401-1.539-0.822-1.931c-0.417-0.39-1.047-0.585-1.886-0.585c-0.865,0-1.544,0.209-2.033,0.63
		c-0.316,0.269-0.474,0.628-0.474,1.078c0,0.409,0.148,0.763,0.443,1.054c0.376,0.373,1.29,0.762,2.741,1.162
		c1.446,0.404,2.519,0.822,3.215,1.253c0.693,0.433,1.235,1.021,1.628,1.769c0.392,0.748,0.591,1.672,0.591,2.771
		c0,0.996-0.236,1.929-0.706,2.802c-0.471,0.868-1.135,1.518-1.995,1.938c-0.859,0.428-1.927,0.637-3.211,0.637
		c-1.865,0-3.298-0.508-4.297-1.525C114.291,27.959,113.695,26.479,113.5,24.531z"/>
</g>
<line fill="none" stroke="#E3DFC5" stroke-width="2" stroke-miterlimit="10" x1="110.5" y1="21.5" x2="128.5" y2="21.5"/>
<g>
	<path fill="#E3DFC5" d="M93.499,12.5h3.039v7.986c0,1.268,0.037,2.091,0.112,2.467c0.131,0.604,0.439,1.089,0.93,1.451
		c0.488,0.365,1.158,0.549,2.007,0.549c0.862,0,1.513-0.171,1.951-0.518c0.438-0.348,0.701-0.771,0.79-1.272
		c0.089-0.501,0.134-1.337,0.134-2.505v-8.157h3.038v7.745c0,1.771-0.082,3.021-0.244,3.754c-0.164,0.73-0.469,1.348-0.908,1.852
		c-0.441,0.504-1.031,0.902-1.771,1.203c-0.74,0.299-1.705,0.446-2.896,0.446c-1.437,0-2.525-0.163-3.269-0.487
		c-0.743-0.326-1.331-0.748-1.761-1.269c-0.432-0.519-0.715-1.062-0.854-1.634c-0.199-0.846-0.297-2.092-0.297-3.743L93.499,12.5
		L93.499,12.5z"/>
</g>
<line fill="none" stroke="#E3DFC5" stroke-width="2" stroke-miterlimit="10" x1="90.5" y1="29.5" x2="108.5" y2="29.5"/>
<g>
	<path fill="#E3DFC5" d="M87.5,12.5l-0.247,0.838c-0.341,0.01-0.789,0.048-1.341,0.113c-0.551,0.066-0.958,0.131-1.222,0.191
		c-0.462,0.109-0.793,0.278-0.991,0.508c-0.198,0.229-0.342,0.479-0.431,0.752l-3.98,13.152c-0.023,0.059-0.039,0.122-0.05,0.2
		c-0.01,0.074-0.016,0.146-0.016,0.203c0,0.192,0.055,0.356,0.165,0.494c0.111,0.134,0.311,0.254,0.597,0.354
		c0.165,0.061,0.528,0.129,1.092,0.209c0.561,0.08,0.98,0.129,1.255,0.146l-0.248,0.837H71.5l0.249-0.837
		c0.308-0.019,0.75-0.042,1.323-0.074c0.573-0.032,0.981-0.086,1.224-0.151c0.43-0.117,0.754-0.281,0.976-0.487
		c0.221-0.208,0.369-0.457,0.446-0.755l3.966-13.168c0.022-0.075,0.039-0.152,0.05-0.229c0.01-0.075,0.017-0.151,0.017-0.229
		c0-0.168-0.047-0.315-0.142-0.441c-0.093-0.127-0.289-0.24-0.586-0.342c-0.298-0.104-0.703-0.197-1.216-0.287
		c-0.513-0.088-0.89-0.143-1.133-0.158l0.249-0.835L87.5,12.5L87.5,12.5z"/>
</g>
<g>
	<path fill="#E3DFC5" d="M60.734,30.5H51.5v-18h10.013c1.67,0,2.949,0.43,3.844,1.29c0.893,0.858,1.342,1.923,1.342,3.192
		c0,1.062-0.319,1.976-0.957,2.738c-0.427,0.504-1.047,0.905-1.867,1.199c1.243,0.312,2.16,0.848,2.746,1.604
		c0.585,0.756,0.879,1.709,0.879,2.855c0,0.934-0.209,1.771-0.626,2.516c-0.419,0.744-0.988,1.334-1.713,1.769 M56.534,20.157h2.328
		c0.832,0,1.414-0.148,1.741-0.448s0.489-0.732,0.489-1.296c0-0.524-0.162-0.935-0.489-1.228c-0.327-0.295-0.896-0.442-1.705-0.442
		h-2.364 M56.503,26.312h2.794c0.923,0,1.571-0.168,1.95-0.508c0.377-0.34,0.567-0.799,0.567-1.369c0-0.531-0.19-0.959-0.564-1.283
		c-0.373-0.321-1.027-0.484-1.964-0.484h-2.783V26.312z"/>
</g>
<g>
	<path fill="#E3DFC5" d="M46.5,17.5h-6l2.635-3.521C43.174,13.984,43.209,14,43.25,14c0.415,0,0.75-0.336,0.75-0.75
		c0-0.413-0.335-0.75-0.75-0.75c-0.413,0-0.75,0.336-0.75,0.75c0,0.09,0.022,0.175,0.053,0.254L39.638,17h-0.273l-2.915-3.497
		c0.028-0.078,0.049-0.163,0.049-0.253c0-0.413-0.335-0.75-0.75-0.75c-0.413,0-0.75,0.336-0.75,0.75S35.336,14,35.749,14
		c0.043,0,0.078-0.018,0.118-0.021l2.632,3.521h-6c-0.827,0-2,1.171-2,2v9c0,0.828,1.173,2,2,2h14c0.829,0,2-1.172,2-2v-9
		C48.5,18.671,47.329,17.5,46.5,17.5z M43.5,27.682c0,0.678-0.257,0.818-1,0.818h-9c-0.741,0-1-0.143-1-0.818v-7.363
		c0-0.678,0.259-0.816,1-0.816h9c0.743,0,1,0.143,1,0.816V27.682z M45.5,24.5c-0.552,0-1-0.448-1-1c0-0.553,0.448-1,1-1s1,0.447,1,1
		C46.5,24.052,46.052,24.5,45.5,24.5z M45.5,21.5c-0.552,0-1-0.448-1-1s0.448-1,1-1c0.553,0,1,0.448,1,1S46.053,21.5,45.5,21.5z"/>
</g>
<g>
	<path fill="none" stroke="#E3DFC5" stroke-width="2" stroke-miterlimit="10" d="M17.899,21.207c-0.597,0.6-1.566,0.6-2.164,0
		l-3.788-3.787c-0.598-0.597-0.598-1.566,0-2.164l1.308-1.307c0.598-0.6,1.566-0.6,2.165,0l3.787,3.785
		c0.598,0.598,0.598,1.564,0,2.164L17.899,21.207z"/>
	<path fill="none" stroke="#E3DFC5" stroke-width="2" stroke-miterlimit="10" d="M25.745,29.051c-0.598,0.6-1.566,0.6-2.165,0
		l-3.787-3.785c-0.598-0.598-0.598-1.565,0-2.164l1.307-1.309c0.598-0.598,1.566-0.598,2.164,0l3.788,3.787
		c0.598,0.597,0.598,1.566,0,2.165L25.745,29.051z"/>
	
		<line fill="none" stroke="#E3DFC5" stroke-width="2" stroke-linecap="round" stroke-miterlimit="10" x1="16.299" y1="18.299" x2="22.566" y2="24.566"/>
</g>
<line fill="none" stroke="#E3DFC5" stroke-width="2" stroke-miterlimit="10" x1="136.5" y1="16.5" x2="147.5" y2="16.5"/>
<line fill="none" stroke="#E3DFC5" stroke-width="2" stroke-miterlimit="10" x1="136.5" y1="21.5" x2="147.5" y2="21.5"/>
<line fill="none" stroke="#E3DFC5" stroke-width="2" stroke-miterlimit="10" x1="136.5" y1="26.5" x2="147.5" y2="26.5"/>
<g>
	<circle fill="#E3DFC5" cx="-0.499" cy="22.5" r="2"/>
	<path fill="#E3DFC5" d="M6.5,16.5h-9c0-0.874-0.125-2-1-2h-3c-0.874,0-0.999,1.126-1,2h-1c-0.875,0-2,1.126-2,2l0,0h1
		c0.875,0,2,1.126,2,2v5c0,0.875-1.125,2-2,2h-1c0,0.876,1.126,1,2,1h15c0.874,0,2-0.124,2-1v-9C8.5,17.626,7.374,16.5,6.5,16.5z
		 M-0.5,26.5c-2.21,0-4-1.79-4-4.001c0-2.209,1.791-3.999,4-3.999s4,1.79,4,3.999C3.5,24.71,1.71,26.5-0.5,26.5z M5.5,20.5
		c-0.555,0-1-0.449-1-1s0.446-1,1-1c0.552,0,1,0.449,1,1S6.052,20.5,5.5,20.5z"/>
	<circle opacity="0.5" fill="#E3DFC5" enable-background="new    " cx="5.5" cy="19.5" r="1"/>
	<rect x="-10.5" y="17.666" fill="#E3DFC5" width="0" height="9.5"/>
	<path opacity="0.5" fill="#E3DFC5" enable-background="new    " d="M-7.5,26.5v-7c0-0.874-0.125-1-1-1h-2v9h2
		C-7.625,27.5-7.5,27.375-7.5,26.5z"/>
</g>
</svg>
